<svg width="176" height="151" xmlns="http://www.w3.org/2000/svg"><g fill="none" fill-rule="evenodd"><path d="M78.27 16c12.34-6.9 30.63-.89 48.29 9s34.58 23.72 43.2 42.73c8.62 19.01 9 43.25-4 54.88-13 11.63-39.33 10.75-57.65 9.56-18.32-1.19-28.57-2.63-42.86-2.26-14.29.37-32.55 2.55-46.15-5.35-13.6-7.9-22.49-25.81-16-37.83 6.49-12.02 28.41-18.15 42.51-31.1C59.71 42.68 66 22.87 78.27 16z" fill="#F4F9FC" fill-rule="nonzero"/><path stroke="#1060E1" d="M126.5 66l.32 37.5H62.5l-18 21.02V103.5h-8v-63H93"/><path fill="#CCEAFF" fill-rule="nonzero" d="M51 61h33v8H51z"/><path d="M50 82.5h53M50 90.5h25M50 74.5h25M49.5 59.5h33v8h-33z" stroke="#1060E1"/><circle fill="#FFB935" fill-rule="nonzero" cx="118" cy="45" r="22"/><path d="M115.1 44.83l.16-.16c4.41-.1 6.94-2.13 6.74-5.31v-.07c.2-2.72-1.94-5-5.34-5a8.06 8.06 0 0 0-6.43 3.42l-1.2-1a9.3 9.3 0 0 1 7.7-4c4.4 0 7.24 2.92 7.27 6.47v.07c0 4.12-3.24 6.31-7.1 6.77l-.3 3.98h-1.07l-.43-5.17zM115 53h2v3h-2z" fill="#FFF" fill-rule="nonzero"/><circle stroke="#F48024" cx="115.5" cy="43.5" r="22"/></g></svg>