<svg width="209" height="151" xmlns="http://www.w3.org/2000/svg"><g fill="none" fill-rule="evenodd"><path d="M164.79 30.85c11.46 15.46 15.31 34.22 20.24 54 4.93 19.78 11 40.6 3 52.14s-30.19 13.71-47.16 12.08c-16.97-1.63-28.79-7.11-45.14-9.17-16.35-2.06-37.22-.66-53.38-10.68C26.19 119.2 14.76 97.74 17.28 78 19.8 58.26 36.32 40 55 25.83 73.68 11.66 94.28 1.36 114.25 2.29c19.97.93 39.08 13.09 50.54 28.56z" fill="#F4F9FC" fill-rule="nonzero"/><path fill="#CCEAFF" fill-rule="nonzero" d="M24.27 52.65l23.1-1.48 1.2 18.67-23.1 1.48z"/><path stroke="#1060E1" d="M22.7 51.03l23.09-1.48 1.2 18.67-23.1 1.48zM45.69 78.5l.12 1.86M38.02 78.99l.12 1.86M26.46 78.8l5.74-.37.24 3.72-5.74.37zM56.39 65.17l-.23-3.73M60.23 64.92l-.24-3.72M51.47 78.57l3.84-.24a3.79 3.79 0 0 0 3.59-4l-.17-2.8"/><path d="M54.65 68.08l-.17-2.79 7.67-.49.17 2.79a3.78 3.78 0 0 1-3.59 4 3.79 3.79 0 0 1-4.08-3.51zM13.82 92.04l.24 3.72M9.98 92.28l.24 3.73M20.66 78.51l-5.75.37a3.79 3.79 0 0 0-3.6 4l.18 2.79" stroke="#1060E1"/><path d="M15.56 89.12l.18 2.79-7.67.5-.18-2.8a3.8 3.8 0 0 1 3.6-4 3.8 3.8 0 0 1 4.07 3.51zM29.93 72.97l-.24-3.73M41.2 68.5l.24 3.73M23.59 64l-1.92.12a1.9 1.9 0 0 1-2-1.74l-.24-3.72a1.9 1.9 0 0 1 1.8-2l1.92-.12.44 7.46zM48.52 62.43l-1.92.12-.48-7.45L48 55a1.9 1.9 0 0 1 2 1.74l.24 3.72a1.9 1.9 0 0 1-1.72 1.97zM45.65 86.66l3.88 3.43M60.32 91.91l-7.61 8.68-2.8-2.46a5.78 5.78 0 0 1 7.62-8.68l2.79 2.46zM55.69 92.96l2.1 1.85M53.15 95.85l2.1 1.85M33.31 87.59l-5.79 6.6M25.71 105l-8.66-7.64 2.46-2.8a5.77 5.77 0 0 1 8.65 7.64l-2.45 2.8zM24.66 100.36l-1.84 2.11M21.78 97.82l-1.85 2.1M42.76 62.79l.12 1.87M38.93 63.04l.12 1.86M35.09 63.29l.12 1.86M31.26 63.53l.12 1.87M27.42 63.78l.12 1.86" stroke="#1060E1"/><ellipse stroke="#1060E1" transform="rotate(-4.03 39.47 56.46)" cx="39.47" cy="56.46" rx="2.88" ry="2.8"/><ellipse stroke="#1060E1" transform="rotate(-4.03 29.89 57.08)" cx="29.89" cy="57.08" rx="2.88" ry="2.8"/><path stroke="#1060E1" d="M20.34 73.49l30.64-1.97.96 14.9-30.64 1.96z"/><path stroke="#F48024" d="M0 127.5h77.5v-36h59v-35H209"/><path d="M17.5 124v-22M21.5 116v-9M48.5 124v-24M51.5 114v-12" stroke="#1060E1"/><path fill="#CCEAFF" fill-rule="nonzero" d="M181.63 30.88l-4.31 12.49L172.68 31z"/><path stroke="#1060E1" stroke-width=".75" d="M166.52 33.07l3.36-5.57h14.46l3.52 5.49-10.5 12.37zM177.36 45.41l-4.65-12.37M177.36 45.41l4.31-12.49"/><path stroke="#1060E1" stroke-width=".75" d="M169.88 27.55l2.83 5.49 4.41-5.59 4.54 5.57 2.68-5.56M167 33.5h21M181.47 25.89l.72-1.49M172.83 25.89l-.72-1.49M179.31 25.89l.36-1.49M174.99 25.89l-.36-1.49M177.5 26v-1"/></g></svg>