<svg xmlns="http://www.w3.org/2000/svg" id="Layer_2" data-name="Layer 2" viewBox="0 0 76 76"><defs><style>.cls-1{fill:#ffb935}.cls-2{fill:none;stroke:#f48024;stroke-miterlimit:10}</style></defs><circle class="cls-1" cx="37.63" cy="40.43" r="3.91"/><circle class="cls-1" cx="40.56" cy="62.91" r="3.91"/><circle class="cls-1" cx="64.02" cy="50.2" r="3.91"/><circle class="cls-1" cx="17.1" cy="50.2" r="3.91"/><circle class="cls-1" cx="37.63" cy="14.03" r="3.91"/><circle class="cls-1" cx="61.09" cy="26.74" r="3.91"/><circle class="cls-1" cx="14.17" cy="26.74" r="3.91"/><path class="cls-2" d="M16.5 48V29M35.86 13.27L19.5 22.82M63.5 48V29M35.86 63.67L19.5 54.12M59.67 54.12l-16.36 9.55M59.67 22.82l-16.36-9.55"/><circle class="cls-2" cx="39.59" cy="12.08" r="3.91"/><circle class="cls-2" cx="39.59" cy="64.86" r="3.91"/><circle class="cls-2" cx="63.05" cy="52.16" r="3.91"/><circle class="cls-2" cx="63.05" cy="24.79" r="3.91"/><circle class="cls-2" cx="16.13" cy="24.79" r="3.91"/><circle class="cls-2" cx="16.13" cy="52.16" r="3.91"/><path class="cls-2" d="M39.5 42v19M39.5 34V16M36.21 36.51L19.5 26.75M59.67 26.75l-16.71 9.76M59.67 50.19l-16.71-9.75M36.21 40.44L19.5 50.19"/><circle class="cls-2" cx="39.59" cy="38.47" r="3.91"/><path class="cls-2" d="M37.61 15.45L18.1 48.78M61.07 48.78L41.56 15.45M59 52.5H20"/></svg>