<svg id="Layer_2" data-name="Layer 2" xmlns="http://www.w3.org/2000/svg" viewBox="0 0 50 50"><defs><style>.cls-5,.cls-6{fill:none;stroke-miterlimit:10}.cls-5{stroke:#ee7b06}.cls-6{stroke:#1060e1}</style><clipPath id="clip-path"><circle cx="16" cy="27" r="9" fill="none"/></clipPath></defs><path fill="#cceaff" d="M31.4 17H48v24H7V17H31.4z"/><circle cx="15.5" cy="26.5" r="9" stroke-miterlimit="10" fill="#fff" stroke="#f48024"/><g clip-path="url(#clip-path)"><path class="cls-5" d="M9.7 33.4a6.5 6.5 0 0 1 12.4-.7M19.3 23.1c0 2.2-1.5 4.5-3.3 4.5s-3.4-2.3-3.4-4.5A3.1 3.1 0 0 1 16 20a3.1 3.1 0 0 1 3.3 3.3z"/></g><path class="cls-6" d="M28.9 14.5h16.6v24h-41v-24H28.9zM29 32.5h14M29 29.5h2M35 29.5h4M29 23.5h14M29 20.5h8"/></svg>