<svg width="169" height="151" xmlns="http://www.w3.org/2000/svg"><g fill="none" fill-rule="evenodd"><path d="M28.58 131.2C12.82 120.02 1.18 100.3.08 79.44-1 58.6 8.48 36.67 24.24 23.2 40 9.73 61.95 4.63 86.4 2.2c24.44-2.43 51.38-2.29 66.1 11.22 14.72 13.51 17.32 40.34 16.8 66.63-.52 26.3-4.14 52.12-18.85 63.27-14.7 11.15-40.65 7.62-63.48 4.62s-42.62-5.59-58.38-16.74z" fill="#F4F9FC" fill-rule="nonzero"/><path fill="#FFB935" fill-rule="nonzero" d="M90.53 95.43l13.73-13.73L118 95.43l-13.73 13.73z"/><path stroke="#F48024" d="M104.27 77.67L118 91.4l-13.73 13.73L90.54 91.4z"/><path stroke="#1060E1" d="M43.74 130.44h20v7h-20zM45.73 129.44h15.01v-118h-15zM31.42 26.27l14.81-14.8M61.03 11.46l57.57 14.81M106.36 78.44h-4l-.98-4h5.99zM36.74 142.44h33v-2.26c0-.96-.77-1.74-1.74-1.74H38.48c-.96 0-1.74.78-1.74 1.74v2.26z"/><path stroke="#1060E1" d="M53.42 127.75l-7.02-7.23 6.99-7.23 7.24 7.23zM53.44 113.29l-7.04-7.23 7.01-7.23 7.22 7.23zM53.42 98.83L46.4 91.6l7.01-7.23 7.22 7.23zM53.43 84.37l-7.03-7.23 7-7.23 7.24 7.23zM53.44 69.91l-7.04-7.23 7.01-7.22 7.22 7.22zM53.42 55.46l-7.02-7.25 7.01-7.23 7.22 7.23zM53.42 40.98l-7.23-7.23 7.2-7.23 7.24 7.23zM53.39 26.52l-6.95-7.11 6.97-7.21 7.22 7.22z"/><path stroke="#1060E1" d="M31.74 26.44h87v8h-87z"/><path stroke="#1060E1" d="M61.13 34.41l7.22-7.23 7.23 7.23M31.42 34.49l7.42-7.31 7.23 7.23"/><path stroke="#1060E1" d="M75.58 34.41l7.21-7.23 7.23 7.23M90.02 34.41l7.21-7.23 7.23 7.23M104.46 34.41l7.21-7.23 6.93 7.31M104.74 33.94v40M104.62 34.72c0 4.06 2.91 6.22 7 6.22 4.1 0 7-2.38 7-6.45"/><path stroke="#F48024" d="M107.74 123.44h19v19h-19zM131.74 123.44h19v19h-19zM131.74 99.44h19v19h-19z"/><path d="M18.24 142.44h82M104.74 78.94v28" stroke="#1060E1"/></g></svg>