<svg height="27" viewBox="0 0 25 27" width="25" xmlns="http://www.w3.org/2000/svg"><path d="m12.4398 5.08193c.5183 0 1.0366 0 1.555.1271l-1.555 2.92332c-2.3325-.1271-4.40577 1.65231-4.53535 3.94015-.12958 2.2878 1.68456 4.3214 4.01705 4.4485h.5183c1.0366 0 2.0733-.3813 2.8508-1.0168l1.6845 2.7962c-1.2958.8897-2.8508 1.3981-4.5353 1.3981-4.1466.1271-7.64529-2.9233-7.77488-6.9905-.12958-4.06724 2.98037-7.49897 7.12698-7.62607zm5.3128 6.22797 1.9437 3.1775-1.9437 3.0504-1.8141-3.0504h-3.7579l1.9437-3.1775zm-3.1099-1.1439c0-.50844.1296-1.01684.3887-1.39814.2592-.38131.7775-.76261 1.1662-1.01681l.2592-.1271c.5183-.2542.6479-.3813.6479-.6355 0-.25421-.3887-.50841-.6479-.50841-.5183 0-.9071.2542-1.1662.76261l-.6479-.63551c.1295-.2542.3887-.5084.6479-.7626.3887-.2542.7775-.2542 1.1662-.2542s.9071.1271 1.1662.3813c.2592.2542.5184.6355.5184 1.01681 0 .6355-.3888 1.1439-1.1663 1.3981l-.3887.25421c-.3888.2542-.6479.3813-.7775.7626h2.3325v.88974zm-2.2029 15.8876 12.3102-6.8635v-19.0651h-24.75v18.938z" fill="#bbc0c4"/></svg>