<svg xmlns="http://www.w3.org/2000/svg" id="Layer_2" data-name="Layer 2" viewBox="0 0 76 76"><defs><style>.cls-1{fill:#ffb935}.cls-2{fill:none;stroke:#f48024;stroke-miterlimit:10}</style></defs><path class="cls-1" d="M19.2 52.5a15.4 15.4 0 0 0-3 2.4c-3.1 3.1-2.9 8.4-2.9 8.4s5.3.2 8.4-2.9a14.7 14.7 0 0 0 2.4-3"/><path class="cls-2" d="M16.2 49.7a19.7 19.7 0 0 0-7.7 12.7l-.6 6.3 6.3-.6c4.3-.4 9.3-3.4 12.7-7.7M53.2 37.2l.5 8.8-7.6 9.1-2.3-1.2 1.3-8.3 8.1-8.4zM37.6 24.3l-8.8-.5-9 7.6 1.1 2.3 8.6-1.3 8.1-8.1z"/><path class="cls-2" d="M61.5 29a30.4 30.4 0 0 0 6.3-20.6 30.5 30.5 0 0 0-20.6 6.3 40 40 0 0 0-5.6 5.2L18.3 44.4c-1.2 1.2.2 4.6 3 7.9l20.3-20.4a1.9 1.9 0 0 1 2.7 2.7L23.9 55c3.3 2.8 6.7 4.1 8 3l24.4-23.4a39.7 39.7 0 0 0 5.2-5.6zM26.6 36c-1.3 1.1 0 4.7 3 8M32.2 46.8c3.4 2.9 7.3 3.8 8.5 2.6M28.4 33.9c-1.2 1.2.1 5 3 8.3M34 44.9c3.5 2.9 7.6 3.8 8.8 2.6"/><path class="cls-2" d="M61 15.2a10.5 10.5 0 0 0 5.8 3.2 28.3 28.3 0 0 0 1-10 28.6 28.6 0 0 0-10.1 1 10.6 10.6 0 0 0 3.3 5.8z"/><circle class="cls-1" cx="54.5" cy="23.6" r="3.8"/><path class="cls-2" d="M52.8 22.5a1 1 0 0 1 1-1"/><circle class="cls-2" cx="53.7" cy="22.5" r="3.8"/><path class="cls-2" d="M44.3 32a2 2 0 0 0-2.7 0L19 54.4l2.7 2.7 22.6-22.6a2 2 0 0 0 0-2.7z"/></svg>