<svg xmlns="http://www.w3.org/2000/svg" width="118" height="78"><g fill="none" fill-rule="evenodd" stroke-linecap="round" stroke-linejoin="round" stroke="#848A91"><path d="M34.05 55.73L18.5 43.5h-12L1.25 5.47 67.69.69 52.4 43.5H30.99zM10.5 16.5h45M10.5 25.5h39M10.5 34.5h24M69.16 77.39l-4.7-2.89h-6.12l-2.71-12.23 24.29-2.48-3.23 14.71h-8.83zM61.5 65.5h13M61.5 68.5h10M61.5 71.5h7M80.16 36.07l5.34-4.57h7V19.03l-24.8-3.4 2.8 15.87 10.78.1zM89.5 21.5h-17M89.5 25.5h-15M89.5 28.5h-9M96.84 70.5l10.77-9h6.12l2.89-19.85-39.59-4.57 8.84 25.42h12.57zM111.5 46.5h-27M111.5 52.5h-23M111.5 57.5h-15M43.39 43.49L58.34 61.5M61.74 18.69l8.84 12.57M92.5 25l15.11 15.43M80 59.5l3.15-3.78M52.57 43.49l27.52 3.06"/></g></svg>