<svg xmlns="http://www.w3.org/2000/svg" width="128" height="67"><g fill="none" fill-rule="evenodd" stroke-linecap="round" stroke-linejoin="round" stroke="#848A91"><path d="M28.49 65.72L15.72 55.5H5.5L1.09 23.73l55.5-4L43.82 55.5H25.94zM8.5 33.5h38M8.5 40.5h33M8.5 47.5h20"/><circle cx="75.5" cy="26.5" r="15"/><path d="M83.5 13.5l10.59-2.52M109 31.13l8.29-6.63h7.21l2.28-20.61-36-2.59 8.28 23.2h11.6zM122.5 9.5h-25M122.5 14.5h-22M122.5 19.5h-13M48.5 43.5l12-12M66.5 23.5h18v10h-18zM71.59 23.48a3.5 3.5 0 0 1 7 0M70.5 23.5v10M79.5 23.5v10"/></g></svg>