<svg xmlns="http://www.w3.org/2000/svg" width="500" height="260"><path d="M371.8 128c-1.9-24.7-31-47.5-57-63.7a261.4 261.4 0 0 0-79.4-33.7c-30.6-7.9-69-13.9-91.2 2.3s-27.8 54.7-22 87.4a147.8 147.8 0 0 0 45.5 80.5c22 21.1 48.8 36.6 75.5 36.5 26.6-.2 53-16 79-37s51.5-47.7 49.6-72.3z" fill="#f4f9fc"/><path d="M34.7 129.9A3.9 3.9 0 1 1 31 126a3.9 3.9 0 0 1 3.8 3.9zM456 49.9a3.6 3.6 0 1 1 3.6 3.6 3.6 3.6 0 0 1-3.6-3.6zM462 177.9a3.6 3.6 0 1 1 3.6 3.6 3.6 3.6 0 0 1-3.6-3.6z" fill="#bcc1c5"/><circle cx="76" cy="222" r="8" fill="none" stroke="#bcc1c5" stroke-miterlimit="10" stroke-width="1.5"/><path fill="none" stroke="#bcc1c5" stroke-miterlimit="10" stroke-width="1.5" d="M56.1 170l-9.1-2 1.5 9.5 7.6-7.5z"/><circle cx="53.5" cy="97.5" r="4.5" fill="none" stroke="#bcc1c5" stroke-miterlimit="10" stroke-width="1.5"/><circle cx="35.5" cy="65.5" r="5.5" fill="none" stroke="#bcc1c5" stroke-miterlimit="10" stroke-width="1.5"/><path fill="none" stroke="#bcc1c5" stroke-miterlimit="10" stroke-width="1.5" d="M430 32.4l7-5-7-5v10zM466 84h10v10"/><circle cx="396" cy="214" r="4" fill="none" stroke="#bcc1c5" stroke-miterlimit="10" stroke-width="1.5"/><circle cx="459" cy="203" r="4" fill="none" stroke="#bcc1c5" stroke-miterlimit="10" stroke-width="1.5"/><circle cx="456" cy="134" r="8" fill="none" stroke="#bcc1c5" stroke-miterlimit="10" stroke-width="1.5"/><g fill="none" stroke="#bcc1c5" stroke-miterlimit="10" stroke-width="1.5"><path d="M69 33v8M73 37h-8"/></g><g><rect x="145" y="79" width="276" height="19" rx="5" fill="#bbc0c4"/><rect x="145" y="107" width="220" height="19" rx="5" fill="#bbc0c4"/><rect x="145" y="135" width="259" height="19" rx="5" fill="#bbc0c4"/><rect x="145" y="163" width="127" height="19" rx="5" fill="#bbc0c4"/><path d="M100.3 79l14.3 15H86z" fill="#f48024"/><path d="M100.3 163L86 148h28.6z" fill="#d4d4d4"/><g fill="#757d86"><path d="M89.5 113.2v15h-2v-12.6l-3.7 1.4v-1.7l5.4-2zM97.7 121.4h-1.3v-1.6h1.3a3 3 0 0 0 2.2-.7 2.5 2.5 0 0 0 .8-1.8 2.3 2.3 0 0 0-2.6-2.7 2.8 2.8 0 0 0-2 .7 2.4 2.4 0 0 0-.7 1.9h-2a3.9 3.9 0 0 1 1.3-3 4.7 4.7 0 0 1 3.4-1.1 4.8 4.8 0 0 1 3.2 1 4 4 0 0 1 1.3 3.2 3.5 3.5 0 0 1-.6 1.8 3.6 3.6 0 0 1-1.8 1.5 3.3 3.3 0 0 1 2 1.4 4.2 4.2 0 0 1 .6 2 4 4 0 0 1-1.3 3.3 5 5 0 0 1-3.4 1.1 5.3 5.3 0 0 1-3.4-1 3.7 3.7 0 0 1-1.4-3.1h2a2.4 2.4 0 0 0 .7 1.9 3.4 3.4 0 0 0 4.1 0 2.7 2.7 0 0 0 .8-2.1 2.4 2.4 0 0 0-.9-2 3.7 3.7 0 0 0-2.3-.7zM114.7 124.2a3.8 3.8 0 0 1-1.3 3.1 5.8 5.8 0 0 1-6.8 0 3.8 3.8 0 0 1-1.4-3.1 3.8 3.8 0 0 1 .7-2.2 4.2 4.2 0 0 1 1.8-1.5 3.8 3.8 0 0 1-1.6-1.3 3.5 3.5 0 0 1-.5-2 3.8 3.8 0 0 1 1.2-3 5.2 5.2 0 0 1 6.3 0 3.8 3.8 0 0 1 1.3 3 3.5 3.5 0 0 1-.6 2 4 4 0 0 1-1.6 1.3 4.3 4.3 0 0 1 1.8 1.5 3.7 3.7 0 0 1 .7 2.2zm-1.9 0a2.8 2.8 0 0 0-.8-2.1 2.8 2.8 0 0 0-2-.8 2.7 2.7 0 0 0-2.1.8 2.8 2.8 0 0 0-.8 2 2.6 2.6 0 0 0 .8 2 3.4 3.4 0 0 0 4.2 0 2.6 2.6 0 0 0 .7-2zm-.3-7a2.5 2.5 0 0 0-.7-1.8 2.7 2.7 0 0 0-3.6 0 2.9 2.9 0 0 0 0 3.7 2.7 2.7 0 0 0 3.6 0 2.5 2.5 0 0 0 .7-1.9z"/></g></g></svg>