<svg id="Layer_2" data-name="Layer 2" xmlns="http://www.w3.org/2000/svg" viewBox="0 0 50 50"><defs><style>.cls-1{fill:#cceaff}.cls-2,.cls-3{fill:#fff;stroke:#1060e1;stroke-miterlimit:10}.cls-3{fill:none}.cls-5{fill:#1060e1}</style></defs><circle class="cls-1" cx="8.5" cy="32.4" r="1.3"/><path class="cls-1" d="M5 24h43v19H5z"/><path class="cls-2" d="M8.1 22.5L34 6.8l9.5 15.6"/><path class="cls-3" d="M3.5 22.5h43v19h-43z"/><path class="cls-2" d="M6.5 36.3v-7.6a3.2 3.2 0 0 0 3.2-3.2h31.6a3.2 3.2 0 0 0 3.2 3.2v7.6a3.2 3.2 0 0 0-3.2 3.2H9.7a3.2 3.2 0 0 0-3.2-3.2zM28.5 14.2l-1.4.9-1.5.8-1.5.9-1.5.9-1.4.9M32.9 11.5l-1.4.9"/><path d="M25 28.1a4.2 4.2 0 1 1-4.2 4.2 4.2 4.2 0 0 1 4.2-4.2m0-1a5.2 5.2 0 1 0 5.2 5.2 5.2 5.2 0 0 0-5.2-5.2z" fill="#f48024"/><circle class="cls-3" cx="11" cy="32.3" r="1.4"/><circle class="cls-3" cx="39" cy="32.3" r="1.4"/><circle class="cls-5" cx="14.5" cy="32.5" r=".5"/><circle class="cls-5" cx="16.5" cy="32.5" r=".5"/><circle class="cls-5" cx="33.5" cy="32.5" r=".5"/><circle class="cls-5" cx="35.5" cy="32.5" r=".5"/></svg>