<svg xmlns="http://www.w3.org/2000/svg" width="128" height="82"><g fill="none" fill-rule="evenodd" stroke-linecap="round" stroke-linejoin="round" stroke="#848A91"><path d="M33.48 55.73L18.19 43.5H5.5L.68 5.47 67.12.69 51.83 43.5H30.42zM9.5 16.5h45M9.5 25.5h39M9.5 34.5h24M109.41 81.13l8.29-6.63h6.8l2.68-20.61-36-2.59 8.29 23.2h11.03zM122.5 59.5h-25M122.5 64.5h-22M122.5 69.5h-13"/><circle cx="81.5" cy="33.5" r="15"/><path d="M73.5 31.5h15v10h-15zM74.94 30.84s-.69-7.5 6.24-7.5 6.25 7.5 6.25 7.5"/><path d="M76.68 30.84s-.51-5.41 4.5-5.41 4.51 5.41 4.51 5.41M92.68 44.59l7 7M55.68 32.59L69.5 24.5"/></g></svg>