<svg width="175" height="151" xmlns="http://www.w3.org/2000/svg"><g fill="none" fill-rule="evenodd"><path d="M135.87 32.05c17.51 13.23 38.67 27.08 39.06 41.4.39 14.32-19.89 29-37.4 40.9-17.51 11.9-32.2 21.08-53.1 27.27-20.9 6.19-48 9.47-64.75-2.46s-23.13-39-18-61.06C6.81 56.04 23.22 39.09 40 25.89 56.78 12.69 73.7 3.23 89.13 4.77c15.43 1.54 29.24 14.08 46.74 27.28z" fill="#F4F9FC" fill-rule="nonzero"/><circle fill="#FFB935" fill-rule="nonzero" cx="68.68" cy="30.06" r="5"/><circle fill="#FFB935" fill-rule="nonzero" cx="42.01" cy="56.74" r="5"/><circle fill="#FFB935" fill-rule="nonzero" cx="42.01" cy="123.43" r="5"/><circle fill="#FFB935" fill-rule="nonzero" cx="68.68" cy="96.75" r="5"/><circle fill="#FFB935" fill-rule="nonzero" cx="108.7" cy="123.43" r="5"/><circle fill="#FFB935" fill-rule="nonzero" cx="135.38" cy="96.75" r="5"/><circle fill="#FFB935" fill-rule="nonzero" cx="135.38" cy="30.06" r="5"/><circle fill="#FFB935" fill-rule="nonzero" cx="108.7" cy="56.74" r="5"/><path d="M72 28.5h56M66.5 90V34M128 95.5H72M133.5 34v56M45 55.5h56M39.5 117V60M101 121.5H45M106.5 60v57M62.83 31.72l-20 20M129.53 31.72l-20.01 20M129.53 98.41l-20.01 20.01M62.83 98.41l-20 20.01" stroke="#1060E1"/><circle stroke="#F48024" cx="66.17" cy="28.38" r="5"/><circle stroke="#F48024" cx="39.49" cy="55.06" r="5"/><circle stroke="#F48024" cx="39.49" cy="121.75" r="5"/><circle stroke="#F48024" cx="66.17" cy="95.07" r="5"/><circle stroke="#F48024" cx="106.18" cy="121.75" r="5"/><circle stroke="#F48024" cx="132.86" cy="95.07" r="5"/><circle stroke="#F48024" cx="132.86" cy="28.38" r="5"/><circle stroke="#F48024" cx="106.18" cy="55.06" r="5"/><path d="M86.5 66v4M86.5 60v3M86.5 87v3M86.5 80v3M86.5 107v3M86.5 100v3M86.5 113v4M86.5 40v4M86.5 34v3M86.5 46v4M94 75.5h-3M101 75.5h-3M75 75.5h-3M81 75.5h-4M61 75.5h-3M55 75.5h-4M48 75.5h-3M128 75.5h-4M121 75.5h-3M114 75.5h-3" stroke="#1060E1"/></g></svg>