<svg height="20" viewBox="0 0 133 20" width="133" xmlns="http://www.w3.org/2000/svg"><path d="m116.995 2.4881c0-1.31191.406-1.76429 1.082-1.76429s1.217.271428 1.848 1.76429l3.833 8.7309v5.5191c0 1.3119-.541 1.6738-2.029 1.8548v.3619h7.078v-.3619c-1.533-.181-2.029-.5881-2.029-1.8548v-5.5191l3.697-8.41424c.722-1.62857 1.443-1.990474 2.525-2.171427v-.361904h-5.185v.361904c1.759.180953 2.39.678567 1.894 1.854767l-3.246 7.46428-3.337-7.64524c-.45-1.04047-.18-1.35714 1.759-1.628569v-.361904h-11.136v.361904c1.758.271429 2.299.588099 2.299 1.854759v10.22377l-8.16-12.440433h-4.013v.361904c1.308.180953 1.713.588099 1.713 1.854759v14.24997c0 1.3119-.36 1.7643-.811 1.7643-.406 0-.631-.1809-1.217-1.7643l-6.0417-16.55711h-.3607l-5.8159 15.83331c-.6312 1.7643-1.6231 2.3524-2.6149 2.5786v.3619h5.32v-.3619c-1.8485-.181-2.4346-.9048-2.0288-2.081l1.3074-3.619h5.5004l1.2622 3.3929c.541 1.538.226 1.9904-1.3524 2.2619v.3619h10.0994v-.3619c-1.759-.2715-2.3-.5881-2.3-1.8548v-12.75715l9.874 15.01905h.586zm-71.1889 7.10238c0-5.79048 2.7502-8.821432 5.9512-8.821432 1.8935 0 3.1108.407142 3.8322 1.176192.541.54286.9468 1.3119 1.3976 2.53333h.3607v-3.890475c-1.8485-.361904-3.5166-.588095-5.1848-.588095-4.824 0-9.8284 3.12143-9.8284 9.59048 0 6.46902 5.0044 9.59052 9.5129 9.59052 1.9837 0 3.742-.3167 5.4101-.8143l.541-3.6643-.3156-.0905c-.4057.7691-.9016 1.4476-1.4427 2.0357-1.1722 1.1762-2.7501 1.8095-4.3281 1.8095-3.0658-.0452-5.9061-2.9857-5.9061-8.86662zm39.9902.54282c-.4058 0-.9468-.0452-1.4878-.13568v-9.04762h1.4878c2.4796 0 3.5617 1.3119 3.5617 4.56905 0 3.30238-1.1272 4.61425-3.5617 4.61425zm-57.9339-9.861871v4.478571h.3606c.5411-2.85 1.6682-3.754762 3.5617-3.754762h.9017v15.742862c0 1.3119-.541 1.6738-2.0288 1.8548v.3619h7.0783v-.3619c-1.5329-.181-2.0288-.5881-2.0288-1.8548v-15.7881h.9017c1.8936 0 3.0207.90476 3.5617 3.75476h.3607v-4.47857h-12.6688zm-5.6356 18.909571c3.0657 0 6.3118-1.7643 6.3118-5.3834 0-2.1262-1.1271-3.89046-3.1108-4.97617l-3.5166-1.94524c-1.8485-1.04048-2.3895-1.99048-2.3895-3.34762 0-1.53809 1.1271-2.759522 3.2461-2.759522 1.0369 0 1.8034.271432 2.4346.859522.541.54286 1.082 1.44762 1.5779 3.07619h.3156v-4.116665c-1.2623-.361904-2.5698-.588095-4.1027-.588095-3.0207 0-5.2749 1.9-5.2749 5.11191 0 2.03571 1.1271 3.89047 2.9756 4.97619l3.2461 1.8095c1.8485 1.0405 2.4346 2.0357 2.4346 3.5286 0 1.7643-1.8034 3.0309-3.7871 3.0309-1.3075 0-2.3895-.4523-3.156-1.2214-.4959-.4976-1.0369-1.2667-1.3976-2.2619h2.119v-.3619c-.5861-.1357-.9468-.2262-1.4427-1.4024l-4.1478-9.90712h-.3607l-4.0576 9.68092c-.54105 1.3119-.90173 1.5381-1.53291 1.6286v.3619h3.60681v-.3619c-1.3075-.1357-1.6682-.769-1.3526-1.5833l.6312-1.5381h3.6519l.8115 1.9c.3607.8595-.1803 1.0857-1.4878 1.1762v.3619h2.8854v3.5738c1.4427.4071 3.2912.6786 4.8692.6786zm45.8061-.181 5.3651-14.97381.4057 12.75711c.0451 1.2667-.4508 1.6286-1.9837 1.8096v.3619h14.7878v-.3619c-1.7583-.2715-2.2993-.5881-2.2993-1.8548v-6.0167c.5861.0905 1.1722.1357 1.623.1357 3.5617 0 6.6275-1.31186 6.6275-5.29281 0-3.98096-3.0658-5.292861-6.6275-5.292861h-6.3569v.361904c1.3074.180953 1.7132.588097 1.7132 1.854767v14.25c0 1.3119-.541 1.8548-2.0288 1.8548h-.0451c-1.578 0-2.2542-.5881-2.2993-1.8096l-.541-14.24997c-.0451-1.3119.4057-1.719044 1.8033-1.899997v-.361904h-4.3732l-4.779 13.435671-4.7789-13.435671h-4.6888v.361904c1.3976.180953 1.8484.633337 1.8033 1.899997l-.4959 13.66187c-.0451 1.3572-.7664 2.1715-2.0739 2.3977v.3619h4.9593v-.3619c-1.2623-.181-1.9837-.9953-1.9386-2.3977l.4057-12.44044 5.4553 15.20004zm-14.3821-3.9357c2.3895 0 5.4553-2.1262 5.4553-5.47382 0-3.30238-3.0207-5.47381-5.4553-5.47381-2.3894 0-5.4552 2.12619-5.4552 5.47381 0 3.30242 3.0207 5.47382 5.4552 5.47382zm0-10.17859c1.5329 0 2.5699 1.26667 2.5699 4.70477 0 3.48332-1.0821 4.70472-2.5699 4.70472-1.5328 0-2.5698-1.2666-2.5698-4.70472 0-3.48334 1.037-4.70477 2.5698-4.70477zm44.9495 7.28329h-5.0044l2.4797-6.87614zm-83.6773-1.4023h-3.0657l1.5329-3.75479zm-5.86097.95h.36068v-5.60956h-.36068c-.5861 1.99048-1.1722 2.44286-2.25423 2.44286h-2.0739v-7.6h3.29119c1.89355 0 3.02071.90476 3.56171 3.75476h.3607v-4.47857h-11.9475v.361905c1.30746.180953 1.71322.588095 1.71322 1.854765v14.25004c0 1.3119-.40576 1.6738-1.71322 1.8547v.3619h7.03322v-.3619c-1.7583-.2714-2.29932-.5881-2.29932-1.8547v-7.46433h2.0739c1.03695.04524 1.66813.49762 2.25423 2.48813z" fill="#bbc0c4"/></svg>