<svg data-name="Layer 2" xmlns="http://www.w3.org/2000/svg" width="514" height="507"><defs><clipPath id="a"><circle cx="422.159" cy="379.419" r="22.581" fill="none"/></clipPath></defs><circle cx="450.5" cy="360.5" r="8.5" fill="#ffb935"/><path fill="none" stroke="#0c0d0e" stroke-miterlimit="10" stroke-width=".75" d="M435.5 345.5h28v32h-28zM461.5 378v48.5h-25V378"/><circle cx="449" cy="360" r="8.5" fill="none" stroke="#0c0d0e" stroke-miterlimit="10" stroke-width=".75"/><path fill="none" stroke="#0c0d0e" stroke-miterlimit="10" stroke-width=".75" d="M449.5 356v4.5h2.5"/><g fill="none" stroke="#0c0d0e" stroke-miterlimit="10" stroke-width=".75"><g fill-rule="evenodd"><path d="M441.492 384.502c-.366.002-.667.326-.992.706v4.292h1v-4.29c.668-.383.352-.706-.008-.708zM444.5 385.208v4.292h1v-4.29M448.5 385.208v4.292h1v-4.29M452.5 385.208v4.292h1v-4.29M456.5 385.208v4.292h1v-4.29"/></g><path d="M440.5 392.5h1v5h-1zM444.5 392.5h1v5h-1zM448.5 392.5h1v5h-1zM452.5 392.5h1v5h-1zM456.5 392.5h1v5h-1z"/><g><path d="M440.5 400.5h1v5h-1zM444.5 400.5h1v5h-1zM448.5 400.5h1v5h-1zM452.5 400.5h1v5h-1zM456.5 400.5h1v5h-1z"/></g><g><path d="M440.5 408.5h1v5h-1zM444.5 408.5h1v5h-1zM448.5 408.5h1v5h-1zM452.5 408.5h1v5h-1zM456.5 408.5h1v5h-1z"/></g><g><path d="M440.5 416.5h1v5h-1zM444.5 416.5h1v5h-1zM448.5 416.5h1v5h-1zM452.5 416.5h1v5h-1zM456.5 416.5h1v5h-1z"/></g></g><path fill="none" stroke="#0c0d0e" stroke-miterlimit="10" stroke-width=".75" d="M436.5 346v-10.5h25V346M442.5 319.5h14v12h-14z"/><g fill="none" stroke="#0c0d0e" stroke-linecap="round" stroke-miterlimit="10" stroke-width=".75"><path d="M436.742 335.56l5.516-4.317M456.61 331.243l5.248 4.317"/></g><g fill="none" stroke="#0c0d0e" stroke-miterlimit="10" stroke-width=".75" fill-rule="evenodd"><path d="M440.5 341.531V346M441.5 346v-4.467M444.5 341.531V346M445.5 346v-4.467M448.5 341.531V346M449.5 346v-4.467M452.5 341.531V346M453.5 346v-4.467M456.5 341.531V346M457.5 346v-4.467"/></g><g fill="none" stroke="#0c0d0e" stroke-miterlimit="10" stroke-width=".75" fill-rule="evenodd"><path d="M445.5 326.927V331M446.5 331v-4.071M449.5 326.927V331M450.5 331v-4.071M453.5 326.927V331M454.5 331v-4.071"/></g><path d="M443.71 319.764a28.355 28.355 0 0 0 1.409-3.567 46.44 46.44 0 0 0 1.077-3.938 89.429 89.429 0 0 0 1.873-13.759h.431v-14h1v14h1.019a89.428 89.428 0 0 0 1.873 13.759 46.43 46.43 0 0 0 1.077 3.938 28.356 28.356 0 0 0 1.409 3.567" fill="none" stroke="#0c0d0e" stroke-miterlimit="10" stroke-width=".75" fill-rule="evenodd"/><circle cx="449" cy="290" r="1.5" fill="#ffcf10" stroke="#0c0d0e" stroke-miterlimit="10" stroke-width=".75"/><circle cx="449.5" cy="290.5" r=".5" fill="#0c0d0e"/><path d="M445.5 373.254V377M446.5 377v-3.744M449.5 373.254V377M450.5 377v-3.744M453.5 373.163v4.337h1v-4.335" fill="none" stroke="#0c0d0e" stroke-miterlimit="10" stroke-width=".75" fill-rule="evenodd"/><circle cx="449.5" cy="359.5" r="7" fill="none" stroke="#0c0d0e" stroke-miterlimit="10" stroke-width=".75"/><path fill="#fff" d="M430 428h40v7h-40z"/><path fill="none" stroke="#0c0d0e" stroke-miterlimit="10" stroke-width=".75" d="M428.5 426.5h40v7h-40z"/><circle cx="422.5" cy="378.5" r="22" fill="#ffcf10" stroke="#0c0d0e" stroke-miterlimit="10" stroke-width=".75"/><g fill="none" stroke="#0c0d0e" stroke-linecap="round" stroke-miterlimit="10" stroke-width=".75" clip-path="url(#a)"><path data-name="Path" d="M408.003 361.893l4.045.02"/><path data-name="Path 3" d="M427.551 361.893l.675.002"/><path data-name="Path 4" d="M414.07 361.893l12.133.064"/><path data-name="Path 16" d="M408.003 366.611l4.045.02"/><path data-name="Path 18" d="M434.966 366.611l1.348.003"/><path data-name="Path 19" d="M421.485 366.611l12.133.066"/><path data-name="Path 20" d="M414.07 366.611l6.067.034"/><path data-name="Path 26" d="M408.003 370.656l4.045.02"/><path data-name="Path 27" d="M424.181 370.656l.674.002"/><path data-name="Path 29" d="M426.203 370.656l6.741.036"/><path data-name="Path 30" d="M414.07 370.656l8.763.046"/><path data-name="Path 31" d="M408.003 375.374l4.045.02"/><path data-name="Path 32" d="M424.181 375.374l.674.004"/><path data-name="Path 33" d="M428.9 375.374l.674.004"/><path data-name="Path 34" d="M426.203 375.374l.674.004"/><path data-name="Path 35" d="M414.07 375.374l8.763.048"/><path data-name="Path 40" d="M408.003 388.856l3.371.02"/><path data-name="Path 41" d="M414.07 388.856l10.785.06"/><path data-name="Path 43" d="M426.203 388.856l1.348.002"/><path data-name="Path 44" d="M408.003 392.9l3.371.02"/><path data-name="Path 46" d="M428.226 393.574l.674.005"/><path data-name="Path 47" d="M414.07 393.574l11.459.064"/><path data-name="Path 48" d="M408.003 384.137l3.371.02"/><path data-name="Path 49" d="M418.114 384.137l1.349.003"/><path data-name="Path 50" d="M420.811 384.137l.674.003"/><path data-name="Path 52" d="M414.07 384.137l2.696.018"/><path data-name="Path 53" d="M422.833 384.137l7.415.042"/><path data-name="Path 54" d="M408.003 380.093l3.371.02"/><path data-name="Path 56" d="M421.485 380.093l1.348.002"/><path data-name="Path 57" d="M414.07 380.093l6.741.036"/><path data-name="Path 58" d="M423.507 380.093l6.741.036"/></g><path d="M429.034 412.602l-2 2.898h4l-2-2.898z" fill="none" stroke="#0c0d0e" stroke-miterlimit="10" stroke-width=".75"/><path d="M427.445 299.557a.149.149 0 0 1 .11.16.28.28 0 0 1-.012.09l-.147.33a.19.19 0 0 1-.171.102.231.231 0 0 1-.098-.023l-1.225-.432.098 1.034v.023a.141.141 0 0 1-.055.114.198.198 0 0 1-.128.045h-.44a.175.175 0 0 1-.135-.051.146.146 0 0 1-.037-.13l.086-1.035-1.201.432a.425.425 0 0 1-.122.023.144.144 0 0 1-.147-.091l-.16-.33a.344.344 0 0 1-.023-.102c0-.068.04-.114.122-.136l1.836-.5zm-1.693-2.506a.137.137 0 0 1 .043.13l-.098 1.034 1.225-.43a.415.415 0 0 1 .11-.024.181.181 0 0 1 .16.103l.147.329a.283.283 0 0 1 .012.09.15.15 0 0 1-.111.16l-1.848.477-1.837-.5a.145.145 0 0 1-.122-.148.353.353 0 0 1 .024-.09l.16-.33a.158.158 0 0 1 .147-.091.428.428 0 0 1 .121.023l1.2.431-.085-1.033v-.023a.143.143 0 0 1 .049-.12.187.187 0 0 1 .122-.039h.44a.199.199 0 0 1 .141.05z" fill="#0c0d0e"/><circle cx="396.5" cy="385.5" r="8.5" fill="#fff"/><path d="M396.095 394.725l-.242-.003a8.971 8.971 0 1 1 .242.003zm-.01-17.306a8.352 8.352 0 1 0 .222.003 8.204 8.204 0 0 0-.222-.003z"/><g fill="#0c0d0e"><path d="M391.513 385.568l-.67-.017a5.2 5.2 0 0 1 9.438-2.874l-.545.388a4.53 4.53 0 0 0-8.223 2.503z"/><path d="M400.997 383.913l-3.641-.095.017-.669 2.972.078.078-2.972.669.017-.095 3.641zM396.14 390.987l-.14-.002a5.16 5.16 0 0 1-4.103-2.187l.545-.389a4.496 4.496 0 0 0 3.575 1.906 4.449 4.449 0 0 0 3.237-1.241 4.5 4.5 0 0 0 1.41-3.168l.67.017a5.2 5.2 0 0 1-5.194 5.064z"/><path d="M391.754 391.219l-.669-.017.095-3.641 3.642.096-.018.669-2.972-.079-.078 2.972z"/></g><path d="M466.026 266.519a3.388 3.388 0 0 1 2.25-4.131 3.496 3.496 0 0 1-.055-2.358 3.314 3.314 0 0 1 1.908-2.051 2.924 2.924 0 0 1 2.552.172 4.2 4.2 0 0 1 4.486-2.587 4.403 4.403 0 0 1 3.535 3.562 4.617 4.617 0 0 1-.53 3.18 3.35 3.35 0 0 1 2.66 4.084 3.307 3.307 0 0 1-3.24 2.61h-10.38a3.276 3.276 0 0 1-3.186-2.481z" fill="#fff"/><path d="M463.021 264.953a3.478 3.478 0 0 1 2.308-4.24 3.594 3.594 0 0 1-.056-2.425 3.398 3.398 0 0 1 1.96-2.104 3 3 0 0 1 2.615.178 4.307 4.307 0 0 1 4.602-2.655 4.518 4.518 0 0 1 3.625 3.656 4.743 4.743 0 0 1-.542 3.265 3.44 3.44 0 0 1 2.727 4.192 3.394 3.394 0 0 1-3.324 2.68H466.29a3.363 3.363 0 0 1-3.27-2.547zM129 444.5l17.654-.008c5.644 0 10.25 3.546 10.25 7.985s-4.606 8.023-10.25 8.023H94" fill="none" stroke="#0c0d0e" stroke-miterlimit="10" stroke-width=".75"/><path d="M164.119 69.048s62.472-2.506 46.172-17.236-29.366 12.906 0 22.022 134.945-1.994 160.29 17.578M368.114 97.057c-11.747-6.796-28.143-9.388-50.11-7.284" fill="none" stroke="#0c0d0e" stroke-miterlimit="10" stroke-width=".75" stroke-dasharray="6 6"/><circle cx="70.066" cy="110.073" r=".596" fill="none" stroke="#0c0d0e" stroke-miterlimit="10" stroke-width=".75"/><path d="M362.55 61.09a.197.197 0 0 1 .14.211.384.384 0 0 1-.014.12l-.188.436a.24.24 0 0 1-.217.136.284.284 0 0 1-.124-.03l-1.555-.572.124 1.369v.03a.19.19 0 0 1-.07.15.245.245 0 0 1-.163.06h-.56a.217.217 0 0 1-.17-.068.198.198 0 0 1-.047-.172l.109-1.369-1.525.572a.52.52 0 0 1-.154.03.182.182 0 0 1-.188-.12l-.202-.436a.472.472 0 0 1-.03-.136.182.182 0 0 1 .155-.18l2.332-.661z" fill="#0c0d0e"/><path d="M360.671 58.067a.186.186 0 0 1 .054.173l-.124 1.368 1.556-.57a.509.509 0 0 1 .139-.031.23.23 0 0 1 .202.136l.188.435a.389.389 0 0 1 .015.12.197.197 0 0 1-.14.211l-2.348.631-2.332-.66a.19.19 0 0 1-.156-.197.483.483 0 0 1 .03-.12l.203-.436a.2.2 0 0 1 .187-.12.524.524 0 0 1 .155.03l1.525.571-.11-1.368v-.03a.194.194 0 0 1 .063-.157.232.232 0 0 1 .155-.053h.56a.246.246 0 0 1 .178.067z" fill="#0c0d0e"/><path d="M430.455 99.16a3.86 3.86 0 0 0-2.722-4.74 3.85 3.85 0 0 0-2.03-4.97 3.73 3.73 0 0 0-3.303.111 5.128 5.128 0 0 0-9.626.77 5.057 5.057 0 0 0 .557 3.994 3.856 3.856 0 0 0-3.21 4.72 3.934 3.934 0 0 0 3.878 2.955h12.6a3.934 3.934 0 0 0 3.856-2.84z" fill="#fff"/><path d="M432.882 100.586a3.963 3.963 0 0 0-2.792-4.868 3.953 3.953 0 0 0-2.083-5.103 3.827 3.827 0 0 0-3.388.115 5.26 5.26 0 0 0-9.874.79 5.195 5.195 0 0 0 .571 4.101 3.958 3.958 0 0 0-3.293 4.846 4.038 4.038 0 0 0 3.981 3.033h12.92a4.037 4.037 0 0 0 3.958-2.914z" fill="none" stroke="#0c0d0e" stroke-miterlimit="10" stroke-width=".75"/><path d="M415.716 103.5h-38.427s-4.664-.415-4.664 3.05 3.706 2.545 3.706 2.545" fill="none" stroke="#0c0d0e" stroke-miterlimit="10" stroke-width=".75"/><path d="M76.658 85.048l-8.384-11.31a1.381 1.381 0 0 1 .72-2.15c1.826-.527 4.482-1.184 5.63-.93 1.69.374 3.59 1.804 5.604 3.317 3.015 2.268 6.433 4.837 9.457 3.943 5.017-1.482 2.06-.689 8.111-2.562 14.645-4.535 21.384-6.74 29.811-8.367a53.485 53.485 0 0 1 11.795-.533c5.505.359 8.58 1.507 9.14 3.412.75 2.557-4.562 6.593-12.84 9.109l-14.344 4.25-7.384 2.17L93.322 91.5l-19.184-.006-1.745-2.147" fill="#ffcf10" stroke="#0c0d0e" stroke-miterlimit="10" stroke-width=".75"/><path d="M81.344 83.796l-10.658 3.239a1.48 1.48 0 0 0-.995 1.831 1.473 1.473 0 0 0 1.825.998l10.658-3.238a1.48 1.48 0 0 0 .994-1.832 1.473 1.473 0 0 0-1.824-.998zM118.82 79.443l-15.839 4.68a.512.512 0 0 0-.344.633l.543 1.85a.51.51 0 0 0 .632.346l15.839-4.68a.512.512 0 0 0 .344-.633l-.543-1.85a.51.51 0 0 0-.632-.346z" fill="#fff"/><path d="M118.41 80.543l2.151-.635 1.433 4.885-4.86 1.436a2.543 2.543 0 0 1-3.15-1.723l-.482-1.458" fill="#fff" stroke="#0c0d0e" stroke-miterlimit="10" stroke-width=".75"/><path d="M94.962 79.23l-1.95.577a.278.278 0 0 0-.187.343l.99 3.378a.277.277 0 0 0 .343.187l1.95-.576a.278.278 0 0 0 .188-.344l-.991-3.377a.277.277 0 0 0-.343-.188zM100.75 77.52l-1.951.577a.278.278 0 0 0-.187.343l.99 3.377a.277.277 0 0 0 .344.188l1.95-.577a.278.278 0 0 0 .187-.343l-.99-3.378a.277.277 0 0 0-.344-.187zM106.537 75.81l-1.95.576a.278.278 0 0 0-.188.344l.991 3.377a.277.277 0 0 0 .343.187l1.95-.576a.278.278 0 0 0 .187-.343l-.99-3.378a.277.277 0 0 0-.343-.187zM112.324 74.1l-1.95.576a.278.278 0 0 0-.187.343l.99 3.378a.277.277 0 0 0 .344.187l1.95-.576a.278.278 0 0 0 .187-.343l-.991-3.378a.277.277 0 0 0-.343-.187zM118.111 72.39l-1.95.576a.278.278 0 0 0-.187.343l.99 3.378a.277.277 0 0 0 .344.187l1.95-.576a.278.278 0 0 0 .187-.344l-.99-3.377a.277.277 0 0 0-.344-.188zM123.899 70.68l-1.95.576a.278.278 0 0 0-.188.343l.991 3.377a.277.277 0 0 0 .343.188l1.95-.577a.278.278 0 0 0 .188-.343l-.991-3.378a.277.277 0 0 0-.343-.187zM129.686 68.969l-1.95.576a.278.278 0 0 0-.187.344l.99 3.377a.277.277 0 0 0 .344.188l1.95-.577a.278.278 0 0 0 .187-.343l-.99-3.378a.277.277 0 0 0-.344-.187z" fill="#fff"/><path fill="#fff" stroke="#0c0d0e" stroke-linecap="round" stroke-linejoin="round" stroke-width=".75" d="M144.244 67.282l-6.659 1.835-2.001-1.269-.376-1.282 9.036.716z"/><path d="M93.606 78.835l-1.951.577a.278.278 0 0 0-.187.343l.991 3.377a.277.277 0 0 0 .343.188l1.95-.577a.278.278 0 0 0 .187-.343l-.99-3.378a.277.277 0 0 0-.343-.187zM99.393 77.125l-1.95.576a.278.278 0 0 0-.187.344l.99 3.377a.277.277 0 0 0 .344.188l1.95-.577a.278.278 0 0 0 .187-.343l-.991-3.378a.277.277 0 0 0-.343-.187zM105.18 75.415l-1.95.576a.278.278 0 0 0-.187.343l.99 3.378a.277.277 0 0 0 .344.187l1.95-.576a.278.278 0 0 0 .187-.343l-.99-3.378a.277.277 0 0 0-.344-.187zM110.968 73.704l-1.95.577a.278.278 0 0 0-.188.343l.991 3.378a.277.277 0 0 0 .343.187l1.95-.576a.278.278 0 0 0 .188-.344l-.991-3.377a.277.277 0 0 0-.343-.188zM116.755 71.994l-1.95.577a.278.278 0 0 0-.187.343l.99 3.378a.277.277 0 0 0 .344.187l1.95-.577a.278.278 0 0 0 .187-.343l-.99-3.377a.277.277 0 0 0-.344-.188zM122.543 70.284l-1.951.576a.278.278 0 0 0-.187.344l.991 3.377a.277.277 0 0 0 .343.188l1.95-.577a.278.278 0 0 0 .187-.343l-.99-3.378a.277.277 0 0 0-.343-.187zM128.33 68.574l-1.95.576a.278.278 0 0 0-.187.343l.99 3.378a.277.277 0 0 0 .343.187l1.951-.576a.278.278 0 0 0 .187-.343l-.991-3.378a.277.277 0 0 0-.343-.187zM117.61 78.758l-15.838 4.681a.512.512 0 0 0-.344.633l.543 1.85a.51.51 0 0 0 .632.346l15.839-4.68a.512.512 0 0 0 .344-.633l-.543-1.851a.51.51 0 0 0-.632-.346zM79.911 83.379l-10.657 3.239a1.48 1.48 0 0 0-.995 1.83 1.473 1.473 0 0 0 1.825 1l10.657-3.24a1.48 1.48 0 0 0 .995-1.83 1.473 1.473 0 0 0-1.825-1z" fill="none" stroke="#0c0d0e" stroke-miterlimit="10" stroke-width=".75"/><path fill="#fff" stroke="#0c0d0e" stroke-miterlimit="10" stroke-width=".75" d="M76.943 80.712l-1.034-1.406M75.245 78.404l-3.718-5.054M74.436 97.061l1.644-.574M77.136 96.117l5.911-2.066M71.038 100.537l8.612-3.01M84.976 95.654l-2.662.931"/><path d="M66.624 29.452L64.72 32.5h3.81l-1.905-3.048zM32.514 157.65l-1.905 2.85h3.81l-1.905-2.85z" fill="none" stroke="#0c0d0e" stroke-miterlimit="10" stroke-width=".75"/><g fill="#0c0d0e"><path d="M22.915 201.651h3.915v.455h-3.915z"/><path d="M24.644 199.921h.455v3.915h-.455z"/></g><path d="M487.615 207.506a1.046 1.046 0 1 1 1.046-1.046 1.047 1.047 0 0 1-1.046 1.046zm0-1.636a.59.59 0 1 0 .59.59.591.591 0 0 0-.59-.59zM50.445 66.557a.149.149 0 0 1 .11.16.28.28 0 0 1-.012.09l-.147.33a.19.19 0 0 1-.171.102.231.231 0 0 1-.098-.023l-1.225-.432.098 1.034v.023a.141.141 0 0 1-.055.114.198.198 0 0 1-.128.045h-.44a.175.175 0 0 1-.135-.051.146.146 0 0 1-.037-.13l.086-1.035-1.201.432a.425.425 0 0 1-.122.023.144.144 0 0 1-.147-.091l-.16-.33a.344.344 0 0 1-.023-.102c0-.068.04-.114.122-.136l1.836-.5zm-1.693-2.506a.137.137 0 0 1 .043.13l-.098 1.034 1.225-.43a.415.415 0 0 1 .11-.024.181.181 0 0 1 .16.103l.147.329a.283.283 0 0 1 .011.09.15.15 0 0 1-.11.16l-1.848.477-1.837-.5a.145.145 0 0 1-.122-.148.353.353 0 0 1 .024-.09l.159-.33a.158.158 0 0 1 .147-.091.428.428 0 0 1 .122.023l1.2.431L48 64.182v-.023a.143.143 0 0 1 .049-.12.187.187 0 0 1 .122-.039h.44a.199.199 0 0 1 .141.05z" fill="#0c0d0e"/><g fill="#0c0d0e" stroke="#0c0d0e" stroke-miterlimit="10" stroke-width=".75"><path d="M446.915 66.651h3.915v.455h-3.915z"/><path d="M448.644 64.921h.455v3.915h-.455z"/></g><path d="M451.06 173.05a4.711 4.711 0 0 1 3.126-5.744 4.868 4.868 0 0 1-.075-3.283 4.603 4.603 0 0 1 2.654-2.85 4.064 4.064 0 0 1 3.542.241 5.834 5.834 0 0 1 6.233-3.596 6.12 6.12 0 0 1 4.91 4.952 6.424 6.424 0 0 1-.734 4.422 4.659 4.659 0 0 1 3.694 5.678 4.598 4.598 0 0 1-4.503 3.63H455.49a4.555 4.555 0 0 1-4.43-3.45z" fill="none" stroke="#0c0d0e" stroke-miterlimit="10" stroke-width=".75"/><path d="M27.026 114.519a3.388 3.388 0 0 1 2.25-4.131 3.496 3.496 0 0 1-.055-2.358 3.314 3.314 0 0 1 1.908-2.051 2.924 2.924 0 0 1 2.552.172 4.2 4.2 0 0 1 4.486-2.587 4.403 4.403 0 0 1 3.535 3.562 4.617 4.617 0 0 1-.53 3.18 3.35 3.35 0 0 1 2.66 4.084 3.307 3.307 0 0 1-3.24 2.61h-10.38a3.276 3.276 0 0 1-3.186-2.481z" fill="#fff"/><path d="M24.021 112.953a3.478 3.478 0 0 1 2.308-4.24 3.594 3.594 0 0 1-.056-2.425 3.398 3.398 0 0 1 1.96-2.104 3 3 0 0 1 2.615.178 4.307 4.307 0 0 1 4.602-2.655 4.518 4.518 0 0 1 3.625 3.656 4.743 4.743 0 0 1-.542 3.265 3.44 3.44 0 0 1 2.727 4.192 3.394 3.394 0 0 1-3.324 2.68H27.29a3.363 3.363 0 0 1-3.27-2.547z" fill="none" stroke="#0c0d0e" stroke-miterlimit="10" stroke-width=".75"/><path d="M493.445 136.557a.149.149 0 0 1 .11.16.28.28 0 0 1-.012.09l-.147.33a.19.19 0 0 1-.171.102.231.231 0 0 1-.098-.023l-1.225-.432.098 1.034v.023a.141.141 0 0 1-.055.114.198.198 0 0 1-.128.045h-.44a.175.175 0 0 1-.135-.051.146.146 0 0 1-.037-.13l.086-1.035-1.201.432a.425.425 0 0 1-.122.023.144.144 0 0 1-.147-.091l-.16-.33a.344.344 0 0 1-.023-.102c0-.068.04-.114.122-.136l1.836-.5zm-1.693-2.506a.137.137 0 0 1 .043.13l-.098 1.034 1.225-.43a.415.415 0 0 1 .11-.024.181.181 0 0 1 .16.103l.147.329a.283.283 0 0 1 .012.09.15.15 0 0 1-.111.16l-1.848.477-1.837-.5a.145.145 0 0 1-.122-.148.353.353 0 0 1 .024-.09l.16-.33a.158.158 0 0 1 .147-.091.428.428 0 0 1 .121.023l1.2.431-.085-1.033v-.023a.143.143 0 0 1 .049-.12.187.187 0 0 1 .122-.039h.44a.199.199 0 0 1 .141.05z" fill="#0c0d0e"/><path d="M478.886 32a3.445 3.445 0 0 0 3.354-3.529 3.494 3.494 0 0 0-2.481-3.393 3.668 3.668 0 0 0 .245-1.312 3.445 3.445 0 0 0-3.353-3.53 3.186 3.186 0 0 0-1.53.406 4.46 4.46 0 0 0-4.06-2.758 4.593 4.593 0 0 0-4.471 4.705 4.843 4.843 0 0 0 .645 2.403 3.537 3.537 0 0 0 .472 7.008z" fill="#fff"/><path d="M477.563 30.5A2.504 2.504 0 0 0 480 27.934a2.54 2.54 0 0 0-1.803-2.467 2.669 2.669 0 0 0 .179-.954 2.503 2.503 0 0 0-2.437-2.565 2.313 2.313 0 0 0-1.11.294 3.24 3.24 0 0 0-2.95-2.005 3.338 3.338 0 0 0-3.249 3.421 3.523 3.523 0 0 0 .47 1.747 2.572 2.572 0 0 0 .342 5.095zM369.211 71.417v2.566M379.5 66.5h16v13h-16zM382.5 92v5M394.5 87v1M388.5 87v1M393.5 92v5M396.5 103.5h-8v-2.403a3.938 3.938 0 0 1 2.698-3.803 3.99 3.99 0 0 1 5.302 3.645zM386.5 103.5h-8v-2.403a3.938 3.938 0 0 1 2.698-3.803 3.99 3.99 0 0 1 5.302 3.645zM381.5 86.5h4v3h-4zM401.5 95v-3M404.5 95v-3M403.5 87v-1.939a2.59 2.59 0 0 0-2.618-2.561H398M403.5 88.018a2.807 2.807 0 0 1 3 2.561V92.5h-6v-1.92a2.807 2.807 0 0 1 3-2.562zM371.778 71.417v2.566M370.5 78v1.939a2.59 2.59 0 0 0 2.619 2.561H377" fill="none" stroke="#0c0d0e" stroke-miterlimit="10" stroke-width=".75"/><path d="M370.5 77.982a2.807 2.807 0 0 1-3-2.561V73.5h6v1.92a2.807 2.807 0 0 1-3 2.562zM383.5 82v-3M391.5 79v3M379.5 76.5h-1.398a4.568 4.568 0 0 1-1.602-1.569v-2.738c.411-.662.953-1.204 1.615-.693h1.385zM397.097 76.5H395.5v-5h1.61c.657-.511 1.19.022 1.39.68v2.74a2.887 2.887 0 0 1-1.403 1.58zM394.5 102v1M391.456 102.217v.855M383.5 102v1M381.5 102v1" fill="none" stroke="#0c0d0e" stroke-miterlimit="10" stroke-width=".75"/><g fill="none" stroke="#0c0d0e" stroke-miterlimit="10" stroke-width=".75"><path d="M391.5 76v1M383.5 76v1"/></g><ellipse cx="390.855" cy="71.638" rx="1.964" ry="1.921" fill="none" stroke="#0c0d0e" stroke-miterlimit="10" stroke-width=".75"/><ellipse cx="384.309" cy="71.638" rx="1.964" ry="1.921" fill="none" stroke="#0c0d0e" stroke-miterlimit="10" stroke-width=".75"/><path fill="none" stroke="#0c0d0e" stroke-miterlimit="10" stroke-width=".75" d="M376.5 82.5h21v10h-21z"/><path d="M62.456 255.64h14.926a3.352 3.352 0 0 1 1.632.45 1.914 1.914 0 0 0 1.185.615h12.394c1.36.027 2.363 2.56 2.363 2.56v3.118s-1.004 2.534-2.363 2.314H79.266a2.888 2.888 0 0 1-.92-.37 8.862 8.862 0 0 1-1.246-.695H62.456" fill="#fff"/><path d="M64.587 255.906H77.89a4.01 4.01 0 0 1 1.591.57 1.79 1.79 0 0 0 1.154.496h12.076c2.398 0 2.512 2.598 2.512 2.598v3.037a2.357 2.357 0 0 1-2.512 2.357H79.726a.848.848 0 0 1-.822-.345l-.074-.118c-.268-.422-1.214-.603-1.214-.603h-13.03M78.706 256.172v2.398M78.706 263.099v1.598" fill="none" stroke="#0c0d0e" stroke-miterlimit="10" stroke-width=".75"/><path d="M67.926 260.192l-1.449.628 1.45.619a.08.08 0 0 1 .047.078v.201a.053.053 0 0 1-.078.05l-1.712-.742a.075.075 0 0 1-.044-.078l.005-.275a.076.076 0 0 1 .048-.073l1.703-.733a.059.059 0 0 1 .026-.005.05.05 0 0 1 .037.016.054.054 0 0 1 .015.039v.197a.08.08 0 0 1-.048.078zM68.397 262.374a.035.035 0 0 1-.003-.037l1.419-3.625a.08.08 0 0 1 .079-.055h.192a.035.035 0 0 1 .029.013.036.036 0 0 1 .002.037l-1.414 3.625a.075.075 0 0 1-.079.055h-.197a.034.034 0 0 1-.028-.013zM71.307 262.12a.08.08 0 0 1-.032-.044l-.78-2.434a.084.084 0 0 1-.004-.032.069.069 0 0 1 .07-.069h.193a.09.09 0 0 1 .05.016.08.08 0 0 1 .033.044l.648 2.09.586-2.09a.078.078 0 0 1 .083-.06h.215a.074.074 0 0 1 .083.06l.587 2.09.648-2.09a.079.079 0 0 1 .032-.044.09.09 0 0 1 .05-.016h.198a.066.066 0 0 1 .059.03.08.08 0 0 1 .007.071l-.78 2.434a.08.08 0 0 1-.033.043.089.089 0 0 1-.05.016h-.25a.088.088 0 0 1-.05-.016.08.08 0 0 1-.033-.043l-.577-1.99-.57 1.99a.08.08 0 0 1-.032.043.089.089 0 0 1-.05.016h-.25a.09.09 0 0 1-.05-.016zM74.995 262.002a.953.953 0 0 1-.345-.364 1.027 1.027 0 0 1-.127-.502v-.655a1.028 1.028 0 0 1 .127-.502.955.955 0 0 1 .345-.365.923.923 0 0 1 .955 0 .955.955 0 0 1 .345.365 1.028 1.028 0 0 1 .127.502v.311a.163.163 0 0 1-.046.117.149.149 0 0 1-.111.048h-1.4v.202a.65.65 0 0 0 .08.32.609.609 0 0 0 .221.232.579.579 0 0 0 .306.085h.635a.058.058 0 0 1 .044.018.064.064 0 0 1 .018.046v.211a.064.064 0 0 1-.018.046.058.058 0 0 1-.044.018h-.635a.901.901 0 0 1-.477-.133zm1.086-1.375v-.17a.652.652 0 0 0-.08-.32.613.613 0 0 0-.222-.232.596.596 0 0 0-.613 0 .61.61 0 0 0-.22.232.65.65 0 0 0-.082.32v.17zM77.344 262.087a.163.163 0 0 1-.046-.117v-2.974h-.407a.058.058 0 0 1-.044-.019.064.064 0 0 1-.017-.045v-.211a.064.064 0 0 1 .017-.046.058.058 0 0 1 .044-.018h.59a.148.148 0 0 1 .112.048.163.163 0 0 1 .046.117v2.974h.464a.058.058 0 0 1 .044.018.064.064 0 0 1 .018.046v.211a.064.064 0 0 1-.018.046.058.058 0 0 1-.044.018h-.648a.149.149 0 0 1-.111-.048zM81.498 262.898a.953.953 0 0 1-.345-.364 1.027 1.027 0 0 1-.127-.502v-.715a1.028 1.028 0 0 1 .127-.502.955.955 0 0 1 .345-.364.923.923 0 0 1 .955 0 .955.955 0 0 1 .346.364 1.028 1.028 0 0 1 .126.502v.715a1.027 1.027 0 0 1-.126.502.953.953 0 0 1-.346.364.922.922 0 0 1-.955 0zm.784-.29a.612.612 0 0 0 .221-.232.653.653 0 0 0 .081-.321v-.761a.652.652 0 0 0-.08-.32.613.613 0 0 0-.222-.232.596.596 0 0 0-.613 0 .61.61 0 0 0-.22.231.65.65 0 0 0-.082.321v.76a.65.65 0 0 0 .081.322.608.608 0 0 0 .221.231.596.596 0 0 0 .613 0zM83.73 262.953a.064.064 0 0 1-.017-.046v-2.465a.064.064 0 0 1 .018-.046.058.058 0 0 1 .043-.019h.22a.058.058 0 0 1 .043.019.064.064 0 0 1 .018.046v.247a.707.707 0 0 1 .278-.277.789.789 0 0 1 .383-.094.846.846 0 0 1 .479.135.746.746 0 0 1 .291.369.75.75 0 0 1 .284-.371.772.772 0 0 1 .438-.129.799.799 0 0 1 .602.239.867.867 0 0 1 .23.628v1.718a.064.064 0 0 1-.018.046.058.058 0 0 1-.043.019h-.22a.058.058 0 0 1-.043-.019.063.063 0 0 1-.017-.046v-1.65a.622.622 0 0 0-.147-.447.522.522 0 0 0-.396-.153.546.546 0 0 0-.44.202.839.839 0 0 0-.169.554v1.494a.064.064 0 0 1-.017.046.058.058 0 0 1-.044.018h-.219a.058.058 0 0 1-.044-.018.063.063 0 0 1-.017-.046v-1.654a.623.623 0 0 0-.147-.447.522.522 0 0 0-.396-.154.545.545 0 0 0-.44.202.84.84 0 0 0-.168.555v1.498a.064.064 0 0 1-.018.046.058.058 0 0 1-.044.018h-.219a.058.058 0 0 1-.043-.018zM88.257 262.839a.954.954 0 0 1-.346-.365 1.027 1.027 0 0 1-.127-.502v-.655a1.028 1.028 0 0 1 .127-.502.955.955 0 0 1 .346-.364.923.923 0 0 1 .954 0 .955.955 0 0 1 .346.364 1.028 1.028 0 0 1 .127.502v.312a.163.163 0 0 1-.046.116.149.149 0 0 1-.112.049h-1.4v.201a.65.65 0 0 0 .08.321.608.608 0 0 0 .221.232.579.579 0 0 0 .307.084h.635a.058.058 0 0 1 .043.019.064.064 0 0 1 .018.046v.21a.064.064 0 0 1-.018.046.058.058 0 0 1-.043.019h-.635a.902.902 0 0 1-.477-.133zm1.085-1.375v-.17a.652.652 0 0 0-.08-.32.613.613 0 0 0-.222-.232.596.596 0 0 0-.612 0 .61.61 0 0 0-.221.231.65.65 0 0 0-.082.321v.17zM92.166 261.785a.075.075 0 0 1-.044.077l-1.711.743a.057.057 0 0 1-.027.004.05.05 0 0 1-.037-.016.054.054 0 0 1-.015-.039v-.201a.08.08 0 0 1 .048-.078l1.449-.619-1.45-.628a.08.08 0 0 1-.047-.078v-.197a.053.053 0 0 1 .079-.05l1.702.733a.077.077 0 0 1 .048.073zM79.134 262.189a1.119 1.119 0 0 1-.434-.396.995.995 0 0 1-.159-.544v-.775a.996.996 0 0 1 .16-.544 1.12 1.12 0 0 1 .433-.395 1.31 1.31 0 0 1 1.047-.065 1.202 1.202 0 0 1 .37.219.091.091 0 0 1 .034.07.12.12 0 0 1-.033.074 2.041 2.041 0 0 1-.126.114.132.132 0 0 1-.083.03.127.127 0 0 1-.088-.035.788.788 0 0 0-.522-.183.817.817 0 0 0-.384.091.714.714 0 0 0-.278.251.632.632 0 0 0-.101.348v.825a.632.632 0 0 0 .101.348.712.712 0 0 0 .278.251.816.816 0 0 0 .384.092.788.788 0 0 0 .522-.184.127.127 0 0 1 .088-.035.132.132 0 0 1 .083.03 1.008 1.008 0 0 1 .126.114.097.097 0 0 1 .033.075.091.091 0 0 1-.033.07 1.2 1.2 0 0 1-.371.218 1.31 1.31 0 0 1-1.047-.064z"/><rect x="62.189" y="263.898" width="2.664" height=".533" rx=".249" fill="none" stroke="#0c0d0e" stroke-miterlimit="10" stroke-width=".75"/><rect x="62.189" y="255.373" width="2.664" height=".533" rx=".249" fill="none" stroke="#0c0d0e" stroke-miterlimit="10" stroke-width=".75"/><path fill="none" stroke="#0c0d0e" stroke-miterlimit="10" stroke-width=".75" d="M33.152 376.318h4.795M35.549 378.716v-4.795"/><circle cx="90.428" cy="347.547" r="1.066" fill="none" stroke="#0c0d0e" stroke-miterlimit="10" stroke-width=".75"/><path fill="none" stroke="#0c0d0e" stroke-miterlimit="10" stroke-width=".75" d="M38.746 452.242v-21.046h4.529"/><g><path fill="#fff" d="M49 302h10v107H49zM65 302h10v107H65z"/><path fill="none" stroke="#0c0d0e" stroke-miterlimit="10" stroke-width=".75" d="M29.5 452.5h64v8h-64zM51.5 452.5v-152h21v152z"/><path fill="none" stroke="#0c0d0e" stroke-miterlimit="10" stroke-width=".75" d="M43.5 416.5h14v36h-14z"/><path fill="#ffcf10" stroke="#0c0d0e" stroke-miterlimit="10" stroke-width=".75" d="M46.5 416.5v-84h12v84zM66.5 416.5v-84h12v84z"/><path fill="none" stroke="#0c0d0e" stroke-miterlimit="10" stroke-width=".75" d="M82 431.5h3.5V453M67.5 416.5h14v36h-14z"/><path fill="#ffcf10" stroke="#0c0d0e" stroke-miterlimit="10" stroke-width=".75" d="M57.5 452.5v-46h10v46zM49.5 314.5h9v18h-9zM66.5 314.5h9v18h-9zM53.5 297.5h17v3h-17z"/><path fill="#fff" d="M60 280h2v14h-2z"/><path fill="#ffcf10" stroke="#0c0d0e" stroke-miterlimit="10" stroke-width=".75" d="M55.5 295.5h13v3h-13zM57.5 292.5h10v3h-10z"/><path fill="none" stroke="#0c0d0e" stroke-miterlimit="10" stroke-width=".75" d="M61.5 278.5h2v14h-2zM62.5 279v-29M70.5 333v84M60.5 300v107M63.5 300v107M60.5 411v41M63.5 411v41M74.5 333v84M49.5 333v84M53.5 333v84"/><g fill="none" stroke="#0c0d0e" stroke-miterlimit="10" stroke-width=".75"><path d="M52.5 315v18M55.5 315v18"/></g><g fill="none" stroke="#0c0d0e" stroke-miterlimit="10" stroke-width=".75"><path d="M68.5 315v18M71.5 315v18"/></g><path d="M60 411h-1v-2.154c-.29 0-.307-.676.321-.676s.612.676.679.676zM62 411h-1v-2.154c-.136 0-.153-.676.476-.676s.612.676.524.676zM65 411h-1v-2.154c.044 0 .027-.676.655-.676s.612.676.345.676z" fill="#0c0d0e"/></g><g><circle cx="87" cy="391" r="34.5" fill="#ffcf10" stroke="#0c0d0e" stroke-miterlimit="10" stroke-width=".75"/><path fill="none" stroke="#0c0d0e" stroke-miterlimit="10" stroke-width=".75" d="M65 371.5h37M67.5 387v-15.5h32v21H96"/><circle cx="108.3" cy="392.892" r="2.016" fill="#fff"/><path fill="#fff" d="M85 383h13v2H85z"/><path fill="none" stroke="#0c0d0e" stroke-miterlimit="10" stroke-width=".75" d="M106.114 390.706l-8.734-7.39M104.099 402.128l2.687-8.063"/><circle cx="107.458" cy="392.05" r="2.016" fill="none" stroke="#0c0d0e" stroke-miterlimit="10" stroke-width=".75"/><path fill="none" stroke="#0c0d0e" stroke-miterlimit="10" stroke-width=".75" d="M103 401.5h6.5v2.5M98.5 404v-2.5h2.5M84.5 382.5h13v2h-13zM70.5 408v5M72.5 408v5M104.5 408v5M106.5 408v5"/><path fill="#fff" d="M91 399h4v6h-4z"/><path fill="none" stroke="#0c0d0e" stroke-miterlimit="10" stroke-width=".75" d="M94.5 399.5h2v4h-2zM90.5 398.5h4v6h-4zM91.5 397v-1M93.5 397v-1M91.5 396v-2M93.5 396v-2M70 404.5h-5.5v3h48v-3H96M83.5 372v6"/><path fill="#ffb935" d="M73 392h16v11H73z"/><path fill="none" stroke="#0c0d0e" stroke-miterlimit="10" stroke-width=".75" d="M87.339 404.5H71.661l-1.161-1.333v-.667h7.161l.587 1h2.933l.587-1H88.5v.667l-1.161 1.333z"/><g fill="none" stroke="#0c0d0e" stroke-miterlimit="10" stroke-width=".75"><path d="M83 401.5h5M72 401.5h4M79 401.5h1M78 401.5h1M80 401.5h1M81 401.5h1"/></g><path fill="none" stroke="#0c0d0e" stroke-miterlimit="10" stroke-width=".75" d="M71.5 402v-10.5h16V402"/></g><g><circle cx="41" cy="342" r="22.5" fill="#ffcf10" stroke="#0c0d0e" stroke-miterlimit="10" stroke-width=".75"/><path d="M26.852 349.06c.238 1.836 1.394 3.95 2.068 5.889a9.161 9.161 0 0 1-2.707-.08c-.297-.058-.318-.25-.324-.545-.013-.597-.091-1.606-.144-2.273-.127-1.594-1.732-3.521-2.454-6.638a.465.465 0 0 1 .469-.567l3.359.104a12.269 12.269 0 0 0-.267 4.11zM32.297 327.814l2.865 7.359a10.79 10.79 0 0 0-3.184 1.705l-5.085-5.225a.36.36 0 0 1-.015-.49 14.014 14.014 0 0 1 4.934-3.548.363.363 0 0 1 .485.199zM48.176 327.934a.288.288 0 0 1 .174.405c-.085.283-3.163 6.825-3.506 7.556a14.054 14.054 0 0 0-4.7-1.28l1.025-7.89a.403.403 0 0 1 .444-.35 30.368 30.368 0 0 1 6.563 1.56zM23.772 338.25l5.142 2.143a15.498 15.498 0 0 0-1.65 3.957l-3.67-.115a.606.606 0 0 1-.586-.543 15.812 15.812 0 0 1 .424-5.27.251.251 0 0 1 .34-.173zM24.72 334.569a12.294 12.294 0 0 1 1.39-2.45.307.307 0 0 1 .467-.03l4.988 5.125a12.493 12.493 0 0 0-2.351 2.699l-5.255-2.192a.374.374 0 0 1-.217-.45 26.273 26.273 0 0 1 .978-2.702zM40.562 326.74l-1.018 7.837a13.028 13.028 0 0 0-2.16.092 11.65 11.65 0 0 0-1.68.338l-2.872-7.372a.384.384 0 0 1 .237-.503 18.889 18.889 0 0 1 7.082-.882.435.435 0 0 1 .411.49z" fill="#fff"/><path d="M45.808 362.741c-.003-.006-1.218-2.115-1.886-3.123a14.674 14.674 0 0 1-1.564-2.507 1.082 1.082 0 0 1-.097-.408.445.445 0 0 1 .175-.366.657.657 0 0 1 .337-.083c.926-.05 1.863.033 2.79.058.9.025 1.8.037 2.698.017a19.451 19.451 0 0 0 2.903-.242 3.964 3.964 0 0 0 1.954-.733 10.971 10.971 0 0 0 2.907-4.046 5.167 5.167 0 0 0-.37-4.24 33.297 33.297 0 0 0-5.78-7.728c2.35-4.65 4.146-8.366 3.901-9.564a.62.62 0 0 0-.085-.22.401.401 0 0 0-.064-.074l-.007-.009a.39.39 0 0 0-.085-.056.555.555 0 0 0-.258-.05 1.033 1.033 0 0 0-.157.015 5.942 5.942 0 0 0-2.072 1.14q-.28.208-.574.444-.294.235-.598.492c-.708.6-1.445 1.28-2.151 1.97q-.151.147-.3.295c-.77.766-1.49 1.533-2.078 2.208q-.458-.25-.932-.47s-7.653-3.777-13.22 1.772c-7.327 7.301-2.473 16.294-2.473 16.294l-.025-.073c.993 2.868 2.127 5.58 2.259 7.254a6.92 6.92 0 0 1-.174 1.791l-.048.554 8.055 1.147 7.373-.606z" fill="#fff"/><path d="M26.356 349.768a30.307 30.307 0 0 0 1.53 5.784 6.385 6.385 0 0 1-2.168.024c-.297-.059-.318-.25-.325-.545-.013-.598-.09-1.606-.144-2.273-.127-1.595-1.731-3.522-2.454-6.639a.465.465 0 0 1 .47-.566l3.358.104a12.27 12.27 0 0 0-.267 4.11zM31.801 328.52l2.866 7.36a10.791 10.791 0 0 0-3.184 1.705l-5.086-5.226a.36.36 0 0 1-.015-.489 14.014 14.014 0 0 1 4.934-3.548.363.363 0 0 1 .485.199zM47.68 328.64a.288.288 0 0 1 .175.405c-.086.284-3.163 6.826-3.507 7.556a14.054 14.054 0 0 0-4.7-1.28l1.026-7.89a.403.403 0 0 1 .444-.35 30.368 30.368 0 0 1 6.563 1.56zM23.277 338.956l5.142 2.144a15.498 15.498 0 0 0-1.65 3.956l-3.67-.114a.606.606 0 0 1-.586-.543 15.813 15.813 0 0 1 .423-5.271.251.251 0 0 1 .34-.172zM24.224 335.275a12.296 12.296 0 0 1 1.39-2.45.307.307 0 0 1 .467-.03l4.989 5.126a12.492 12.492 0 0 0-2.352 2.699l-5.255-2.192a.374.374 0 0 1-.216-.45 26.273 26.273 0 0 1 .977-2.703zM40.067 327.446l-1.018 7.837a13.027 13.027 0 0 0-2.161.092 11.65 11.65 0 0 0-1.68.339l-2.872-7.373a.384.384 0 0 1 .237-.502 18.889 18.889 0 0 1 7.083-.882.435.435 0 0 1 .41.49z" fill="#ffb935"/><path d="M29.06 355.136a31.122 31.122 0 0 1 1.896 6.225 2.388 2.388 0 0 1-.037 1.102M45.808 363.394l-.01-.019a41.452 41.452 0 0 0-1.876-3.104 14.673 14.673 0 0 1-1.564-2.507 1.082 1.082 0 0 1-.097-.408.445.445 0 0 1 .175-.367.657.657 0 0 1 .337-.082c.926-.05 1.863.032 2.79.058.9.025 1.8.037 2.698.017a19.451 19.451 0 0 0 2.903-.242 3.964 3.964 0 0 0 1.954-.733 10.971 10.971 0 0 0 2.907-4.046 5.167 5.167 0 0 0-.37-4.241 33.296 33.296 0 0 0-5.78-7.727c2.35-4.65 4.146-8.366 3.901-9.565a.62.62 0 0 0-.085-.22.402.402 0 0 0-.064-.073l-.007-.009a.389.389 0 0 0-.085-.057.555.555 0 0 0-.258-.05 1.032 1.032 0 0 0-.157.016 5.942 5.942 0 0 0-2.072 1.14q-.28.208-.574.443-.294.236-.598.493c-.708.6-4.236 3.424-4.824 4.1" fill="none" stroke="#0c0d0e" stroke-miterlimit="10" stroke-width=".75"/><path d="M24.112 345.607l2.105.066a12.364 12.364 0 0 0-.109 3.485 19.589 19.589 0 0 0 1.307 4.31c.096.25.193.5.287.748q-.092.002-.187.002a8.376 8.376 0 0 1-.88-.045 53.318 53.318 0 0 0-.143-2.181 8.72 8.72 0 0 0-1.004-2.865 19.483 19.483 0 0 1-1.376-3.52m-.367-.761a.465.465 0 0 0-.454.566c.722 3.118 2.327 5.045 2.454 6.64.053.666.131 1.675.144 2.272.006.295.027.487.324.545a7.6 7.6 0 0 0 1.302.1 7.85 7.85 0 0 0 1.227-.091 32.68 32.68 0 0 1-1.89-5.817 12.268 12.268 0 0 1 .267-4.11l-3.36-.105h-.014zM31.746 328.468l2.442 6.269a11.549 11.549 0 0 0-2.126 1.152l-4.377-4.498a13.182 13.182 0 0 1 4.061-2.923m.213-.884a.369.369 0 0 0-.147.031 14.015 14.015 0 0 0-4.934 3.549.36.36 0 0 0 .015.489l5.086 5.225a10.79 10.79 0 0 1 3.184-1.705l-2.866-7.36a.36.36 0 0 0-.338-.229zM41.869 327.162a29.703 29.703 0 0 1 5.602 1.323 673.156 673.156 0 0 1-2.996 6.432 14.838 14.838 0 0 0-3.489-.96l.883-6.795m-.302-.79a.404.404 0 0 0-.398.353l-1.025 7.89a14.054 14.054 0 0 1 4.7 1.28c.343-.73 3.42-7.273 3.506-7.556a.288.288 0 0 0-.174-.405 30.37 30.37 0 0 0-6.563-1.56.402.402 0 0 0-.046-.002zM24.033 339.17l3.817 1.592a16.19 16.19 0 0 0-1.148 2.82l-2.96-.092a14.717 14.717 0 0 1 .29-4.32m-.356-.94a.25.25 0 0 0-.244.191 15.816 15.816 0 0 0-.424 5.271.606.606 0 0 0 .586.543l3.67.115a15.496 15.496 0 0 1 1.65-3.957l-5.142-2.144a.25.25 0 0 0-.096-.02zM26.413 332.996l4.074 4.186a13.302 13.302 0 0 0-1.548 1.804l-4.378-1.826c.236-.749.521-1.52.85-2.3a11.446 11.446 0 0 1 1.002-1.864m-.058-1a.3.3 0 0 0-.245.123 12.29 12.29 0 0 0-1.39 2.45 26.278 26.278 0 0 0-.978 2.702.374.374 0 0 0 .216.45l5.256 2.192a12.492 12.492 0 0 1 2.351-2.699l-4.988-5.125a.309.309 0 0 0-.222-.094zM38.946 326.217v.75q.409 0 .828.016l-.888 6.834a13.792 13.792 0 0 0-1.597.107c-.378.048-.755.114-1.127.196l-2.49-6.395a17.832 17.832 0 0 1 5.274-.758v-.75m0 0a18.345 18.345 0 0 0-5.877.915.384.384 0 0 0-.237.503l2.871 7.372a11.661 11.661 0 0 1 1.68-.338 12.977 12.977 0 0 1 1.63-.103q.267 0 .531.01l1.018-7.836a.435.435 0 0 0-.41-.49q-.615-.033-1.206-.033z" fill="#0c0d0e"/><path d="M33.645 363.397c-.107-1.896-.192-4.09-.287-6.585a.964.964 0 0 1 1.196-.983 2.845 2.845 0 0 1 1.696 1.299 67.55 67.55 0 0 1 4.107 7.115" fill="none" stroke="#0c0d0e" stroke-miterlimit="10" stroke-width=".75"/><path d="M37.687 331.79c-.914-.322-3.766 4.278-3.571 5.156s3.49 1.87 4.413 1.023a4.075 4.075 0 0 0 .63-2.618c-.323-.965-.557-3.24-1.472-3.561z" fill="#fff"/><path d="M37.629 332.9c.686.63.903 2.503 1.19 3.352a4.006 4.006 0 0 1-.63 2.593 1.743 1.743 0 0 1-1.159.318c-.412-5.568.073-6.683.599-6.264z" fill="#ffb935"/><path d="M37.968 331.966c.686.63.904 2.503 1.19 3.352a4.006 4.006 0 0 1-.629 2.594 1.743 1.743 0 0 1-1.16.318c-.411-5.569.074-6.684.6-6.264z" fill="none" stroke="#0c0d0e" stroke-miterlimit="10" stroke-width=".75"/><circle cx="43.5" cy="343.5" r="1" fill="none" stroke="#0c0d0e" stroke-miterlimit="10" stroke-width=".75"/><path d="M37.687 331.79c-.914-.322-3.766 4.278-3.571 5.156s3.49 1.87 4.413 1.023a4.075 4.075 0 0 0 .63-2.618c-.323-.965-.557-3.24-1.472-3.561z" fill="none" stroke="#0c0d0e" stroke-miterlimit="10" stroke-width=".75"/></g><path d="M32.432 282.432a.204.204 0 0 1 .149.218.39.39 0 0 1-.016.124l-.199.452a.254.254 0 0 1-.23.14.306.306 0 0 1-.132-.03l-1.647-.593.13 1.418v.032a.195.195 0 0 1-.073.156.263.263 0 0 1-.173.062h-.592a.233.233 0 0 1-.181-.07.202.202 0 0 1-.05-.18l.115-1.418-1.615.592a.562.562 0 0 1-.164.031.193.193 0 0 1-.198-.124l-.215-.452a.48.48 0 0 1-.032-.14c0-.094.055-.156.165-.187l2.471-.686zm-1.998-3.28a.19.19 0 0 1 .058.18l-.131 1.418 1.647-.592a.549.549 0 0 1 .148-.032.244.244 0 0 1 .214.141l.199.452a.394.394 0 0 1 .016.125.204.204 0 0 1-.149.218l-2.487.654-2.47-.685a.198.198 0 0 1-.165-.203.492.492 0 0 1 .032-.125l.214-.452a.213.213 0 0 1 .199-.125.566.566 0 0 1 .163.032l1.616.592-.116-1.418v-.031a.198.198 0 0 1 .066-.164.249.249 0 0 1 .165-.054h.592a.264.264 0 0 1 .19.07z" fill="#0c0d0e"/><path fill="#fff" d="M108.494 438h4.062v2.843h-4.062z"/><g><ellipse cx="103.455" cy="446.677" rx="2.377" ry="2.396" fill="#fff"/><ellipse cx="120.573" cy="446.677" rx="2.377" ry="2.396" fill="#fff"/><path fill="none" stroke="#0c0d0e" stroke-miterlimit="10" stroke-width=".75" d="M106.463 445.514h12.186M123.93 445.92h.07a2.589 2.589 0 0 0 2.58-2.598 2.593 2.593 0 0 0-2.155-2.564l-2.29-.384a4.732 4.732 0 0 1-2.26-1.043l-3.41-2.864a4.727 4.727 0 0 0-3.04-1.107h-7.188a5.274 5.274 0 0 0-3.563 1.388l-2.631 2.41a3.371 3.371 0 0 0-1.094 2.486v1.396a2.87 2.87 0 0 0 2.858 2.88"/><path d="M117.024 436.984H106a3.295 3.295 0 0 0-2.245.883l-1.224 1.138a.475.475 0 0 0 .324.823h18.232M107.885 440.031v-2.843M111.947 440.031v-2.843M124.336 442.671h1.624M112.556 441.859h.813" fill="none" stroke="#0c0d0e" stroke-miterlimit="10" stroke-width=".75"/><ellipse cx="103.913" cy="446.198" rx="2.377" ry="2.396" fill="none" stroke="#0c0d0e" stroke-miterlimit="10" stroke-width=".75"/><circle cx="103.913" cy="446.198" r=".475" fill="none" stroke="#0c0d0e" stroke-miterlimit="10" stroke-width=".75"/><circle cx="121.031" cy="446.198" r=".475" fill="none" stroke="#0c0d0e" stroke-miterlimit="10" stroke-width=".75"/><ellipse cx="121.031" cy="446.198" rx="2.377" ry="2.396" fill="none" stroke="#0c0d0e" stroke-miterlimit="10" stroke-width=".75"/></g><path fill="none" stroke="#0c0d0e" stroke-miterlimit="10" stroke-width=".75" d="M385.5 77v1M387.5 77v1M389.5 77v1"/></svg>