<svg id="Layer_2" data-name="Layer 2" xmlns="http://www.w3.org/2000/svg" viewBox="0 0 50 50"><defs><style>.cls-2,.cls-3,.cls-4{fill:none;stroke-linejoin:round}.cls-2,.cls-3{stroke:#1060e1}.cls-3,.cls-4{stroke-linecap:round}.cls-4{stroke:#f48024}</style></defs><path d="M48 23s-2.1 10-22 10S4 23 4 23s2.1-9.9 22-9.9 22 10 22 10z" fill="#cceaff"/><path class="cls-2" d="M12 29.9L3.5 32V12.1l8.5 2.2"/><path class="cls-3" d="M47 22s-2.1 10-22 10S3 22 3 22s2.1-9.9 22-9.9 22 10 22 10z"/><ellipse class="cls-3" cx="25" cy="22.1" rx="22" ry="5"/><path class="cls-3" d="M3.5 22.5h43"/><path class="cls-2" d="M17.5 13v23M32.5 13v23"/><path class="cls-4" d="M32.5 41.5h-15l-3-6h21l-3 6zM25.5 38.5h-1M28.5 38.5h-1M22.5 38.5h-1"/><path class="cls-3" d="M13.5 39.5h-6M3.5 37.5h4M46.5 38.5h-4M5.5 39.5h-1M39.5 38.5h-3M12.5 37.5h-2"/></svg>