<svg xmlns="http://www.w3.org/2000/svg" id="Layer_2" data-name="Layer 2" viewBox="0 0 76 76"><defs><style>.cls-4,.cls-5{fill:none}.cls-3{fill:#ffb935}.cls-4,.cls-5{stroke:#ee7b06;stroke-miterlimit:10}.cls-5{stroke:#f9fbfd}</style><clipPath id="clip-path"><circle cx="29" cy="31" r="18" fill="none"/></clipPath></defs><g clip-path="url(#clip-path)"><path class="cls-3" d="M38.05 23.8c0 4.5-3.17 9.39-7.08 9.39s-7.09-4.89-7.09-9.39 3.17-6.94 7.09-6.94 7.08 2.43 7.08 6.94z"/><circle class="cls-3" cx="30.5" cy="46.5" r="12.5"/><circle class="cls-4" cx="30" cy="47" r="12.5"/><path class="cls-5" d="M38.45 45.42c0 .16 0 .31-.05.47M34.36 37.62a8.16 8.16 0 0 1 2.46 2.2 8.39 8.39 0 0 1 1.25 2.41"/><path class="cls-4" d="M36.72 22.8c0 4.5-3.17 9.39-7.09 9.39s-7.08-4.89-7.08-9.39 3.17-6.93 7.08-6.93 7.09 2.42 7.09 6.93z"/></g><path class="cls-3" transform="rotate(-45 58.56 57.79)" d="M55.15 50.08h6.83v15.43h-6.83z"/><path class="cls-4" transform="rotate(-45 56.23 57.8)" d="M52.82 50.08h6.83v15.43h-6.83z"/><circle class="cls-4" cx="29.58" cy="31.42" r="20.15"/><path class="cls-4" d="M43.92 45.17l6.91 6.92"/><path class="cls-3" d="M58.14 30.88a.59.59 0 0 1-.58-.39.69.69 0 0 1-.05-.24.62.62 0 0 1 0-.13.49.49 0 0 1 0-.11.37.37 0 0 1 0-.11l.08-.1a.67.67 0 0 1 .9 0 .86.86 0 0 1 .07.1.24.24 0 0 1 .06.11.49.49 0 0 1 0 .11v.13a.69.69 0 0 1-.05.24.92.92 0 0 1-.13.21.69.69 0 0 1-.45.18M55.61 30.88a.52.52 0 0 1-.24-.05 1.2 1.2 0 0 1-.21-.13.92.92 0 0 1-.13-.21.69.69 0 0 1-.05-.24.67.67 0 0 1 .18-.45.8.8 0 0 1 .21-.13.66.66 0 0 1 .37 0 .3.3 0 0 1 .11 0h.11l.1.08a.67.67 0 0 1 .18.45.69.69 0 0 1-.05.24.67.67 0 0 1-.13.21l-.1.07a.24.24 0 0 1-.11.06h-.24M55.61 28.35a.52.52 0 0 1-.24-.05.8.8 0 0 1-.21-.13A.74.74 0 0 1 55 28a.64.64 0 0 1-.05-.24.69.69 0 0 1 .18-.45 1.2 1.2 0 0 1 .21-.13.66.66 0 0 1 .37 0h.11a.24.24 0 0 1 .11.06l.1.07a.69.69 0 0 1 .18.45.64.64 0 0 1-.05.24.57.57 0 0 1-.13.21.87.87 0 0 1-.1.08l-.11.05h-.24M58.14 28.35a.62.62 0 0 1-.63-.63.69.69 0 0 1 .18-.45.67.67 0 0 1 .9 0 .69.69 0 0 1 .18.45.67.67 0 0 1-.18.45.69.69 0 0 1-.45.18M58.14 33.41h-.25a.39.39 0 0 1-.11-.06l-.1-.07a.8.8 0 0 1-.13-.21.69.69 0 0 1-.05-.24.57.57 0 0 1 0-.13.36.36 0 0 1 0-.11.61.61 0 0 1 0-.12l.08-.09a.65.65 0 0 1 .9 0l.07.09a.34.34 0 0 1 .06.12.36.36 0 0 1 0 .11v.13a.69.69 0 0 1-.05.24 1.2 1.2 0 0 1-.13.21l-.1.07a.39.39 0 0 1-.11.06h-.24M55.61 33.41a.69.69 0 0 1-.24 0 1.2 1.2 0 0 1-.21-.13A.92.92 0 0 1 55 33a.69.69 0 0 1-.05-.24.67.67 0 0 1 .18-.45 1.28 1.28 0 0 1 .21-.14.58.58 0 0 1 .37 0h.11l.11.06.1.08a.67.67 0 0 1 .18.45.69.69 0 0 1-.05.24.67.67 0 0 1-.13.21l-.1.07a.39.39 0 0 1-.11.06h-.24M55.61 35.94a.53.53 0 0 1-.24-.06.8.8 0 0 1-.21-.13.74.74 0 0 1-.13-.21.6.6 0 0 1-.03-.24v-.12a.56.56 0 0 1 0-.12.41.41 0 0 1 .06-.11.86.86 0 0 0 .07-.1 1.2 1.2 0 0 1 .21-.13.66.66 0 0 1 .37 0h.11a.39.39 0 0 1 .11.06l.1.07.07.1a.41.41 0 0 1 .06.11.56.56 0 0 1 0 .12.49.49 0 0 1 0 .12.6.6 0 0 1-.05.24.57.57 0 0 1-.13.21l-.1.08-.11.05a.3.3 0 0 1-.11 0h-.13M55.61 25.83a.7.7 0 0 1-.45-.19.67.67 0 0 1-.18-.45A.69.69 0 0 1 55 25a.92.92 0 0 1 .13-.21 1.2 1.2 0 0 1 .21-.13.65.65 0 0 1 .69.13.67.67 0 0 1 .13.21.69.69 0 0 1 .05.24.67.67 0 0 1-.18.45.39.39 0 0 1-.1.08l-.11.05a.3.3 0 0 1-.11 0h-.13M55.61 23.3a.69.69 0 0 1-.45-.18.71.71 0 0 1-.18-.45.6.6 0 0 1 .05-.24.62.62 0 0 1 .13-.21 1.28 1.28 0 0 1 .21-.14.58.58 0 0 1 .37 0h.11l.11.06a.39.39 0 0 1 .1.08.5.5 0 0 1 .13.21.6.6 0 0 1 .05.24.71.71 0 0 1-.18.45l-.1.07a.39.39 0 0 1-.11.06h-.24M55.61 38.46a.69.69 0 0 1-.24-.05.8.8 0 0 1-.21-.13.74.74 0 0 1-.13-.21.64.64 0 0 1-.05-.24v-.13a.76.76 0 0 1 0-.11.3.3 0 0 1 .06-.11l.07-.1a1.2 1.2 0 0 1 .21-.13.66.66 0 0 1 .37 0h.11a.24.24 0 0 1 .11.06l.1.07a.61.61 0 0 1 .07.1.3.3 0 0 1 .06.11.76.76 0 0 1 0 .11.62.62 0 0 1 0 .13.64.64 0 0 1-.05.24.57.57 0 0 1-.13.21l-.1.08h-.35M53.08 28.35a.67.67 0 0 1-.44-.18.6.6 0 0 1-.14-.17.64.64 0 0 1 0-.24.69.69 0 0 1 0-.24.85.85 0 0 1 .14-.21.65.65 0 0 1 .57-.17h.12l.11.06.09.07a1 1 0 0 1 .14.21.69.69 0 0 1 0 .24.64.64 0 0 1 0 .24.77.77 0 0 1-.14.21l-.09.08-.11.05h-.25M53.08 33.41a.67.67 0 0 1-.44-.18.85.85 0 0 1-.14-.23.69.69 0 0 1 0-.24.64.64 0 0 1 .19-.45.6.6 0 0 1 .57-.17h.12l.11.06.09.08a.64.64 0 0 1 .19.45.69.69 0 0 1 0 .24 1 1 0 0 1-.14.21l-.09.07-.11.06h-.25M53.08 23.3a.67.67 0 0 1-.44-.18.85.85 0 0 1-.14-.21.69.69 0 0 1 0-.24.6.6 0 0 1 0-.24.63.63 0 0 1 .71-.38h.12l.11.06.09.08a.64.64 0 0 1 .14.21.6.6 0 0 1 0 .24.69.69 0 0 1 0 .24 1 1 0 0 1-.14.21l-.09.07-.11.06h-.25M53.08 38.46a.67.67 0 0 1-.44-.18.6.6 0 0 1-.14-.21.64.64 0 0 1 0-.24.69.69 0 0 1 0-.13.26.26 0 0 1 0-.11.3.3 0 0 1 .06-.11l.08-.1a.65.65 0 0 1 .57-.17h.12l.11.06.09.07a.65.65 0 0 1 .19.45.64.64 0 0 1 0 .24.77.77 0 0 1-.14.21l-.09.08h-.36"/></svg>