<svg id="Layer_2" data-name="Layer 2" xmlns="http://www.w3.org/2000/svg" viewBox="0 0 50 50"><defs><style>.cls-3{fill:#f48024}</style></defs><path fill="#cceaff" d="M8 14h39v29H8z"/><path fill="none" stroke="#1060e1" stroke-miterlimit="10" d="M5.5 11.5h39v29h-39z"/><path class="cls-3" d="M18 29.8v-1.2c0-1.3-.4-1.8-1.8-1.6H16v-2h.2c1.4.2 1.9-.3 1.9-1.6v-1.2c0-1.7.8-2.8 3.8-3.4l.3 1.4c-2 .5-2.2 1-2.2 2.3v1.2a2.2 2.2 0 0 1-1.8 2.3 2.2 2.2 0 0 1 1.8 2.3v1.2c0 1.2.3 1.8 2.3 2.3l-.4 1.3c-3-.5-3.8-1.6-3.8-3.3zM27.8 31.8c2-.5 2.3-1 2.3-2.3v-1.2a2.2 2.2 0 0 1 1.7-2.3 2.2 2.2 0 0 1-1.8-2.3v-1.2c0-1.2-.3-1.8-2.3-2.3l.4-1.3c3 .5 3.8 1.6 3.8 3.3v1.2c0 1.3.5 1.8 1.9 1.6h.2v2h-.2c-1.4-.2-1.9.3-1.9 1.6v1.2c0 1.7-.8 2.8-3.8 3.4z"/></svg>